<svg width="160" height="47" viewBox="0 0 160 47" fill="none" xmlns="http://www.w3.org/2000/svg">
<path d="M71.9642 22.2544C71.9642 14.3168 77.4814 8.99219 85.0024 8.99219C92.5233 8.99219 98.0406 14.3168 98.0406 22.2544V36.0683H92.0217V22.2544C92.0217 17.6343 89.214 15.0212 84.9998 15.0212C80.7856 15.0212 77.9778 17.6835 77.9778 22.2544V36.0683H71.959V22.2544H71.9642Z" fill="#333333"/>
<path d="M101.904 3.26571C101.904 1.45805 103.409 0 105.164 0C106.92 0 108.474 1.45546 108.474 3.26571C108.474 4.97238 106.969 6.58063 105.164 6.58063C103.36 6.58063 101.904 4.97238 101.904 3.26571ZM102.305 9.39313H107.972V36.0679H102.305V9.39313V9.39313Z" fill="#333333"/>
<path d="M114.942 25.4187V15.4221H112.486V9.39314H114.942V3.86914H120.961V9.39573H127.43V15.4247H120.961V24.0642C120.961 29.741 125.124 30.2435 128.733 30.2435V36.2725C123.267 36.2725 114.942 34.8662 114.942 25.4213V25.4187Z" fill="#333333"/>
<path d="M133.346 41.0397C139.114 42.2465 142.472 36.5697 140.869 33.3532L130.99 9.39258H137.41L145.132 27.9302L152.855 9.39258H159.223L148.24 36.0673C145.182 42.6479 141.57 48.0735 133.346 46.8175V41.0397V41.0397Z" fill="#333333"/>
<path d="M27.6742 19.6721L20.7737 20.9852C20.8332 21.3426 20.8616 21.7103 20.8616 22.0832C20.8616 23.8469 20.2179 25.4422 19.1527 26.6568L24.2744 31.4582C26.5159 28.985 27.8836 25.6986 27.8836 22.0832C27.8836 21.2623 27.8112 20.4569 27.6742 19.6721V19.6721ZM18.2038 27.5528C17.0275 28.4722 15.5486 29.0161 13.9431 29.0161C12.1954 29.0161 10.5976 28.3738 9.37727 27.3016L4.58392 32.432C7.06333 34.6825 10.3494 36.0473 13.9431 36.0473C17.2757 36.0473 20.342 34.8716 22.7464 32.9085L18.2038 27.5528ZM7.02196 22.0832C7.02196 21.2778 7.16157 20.5035 7.41753 19.7835L0.840257 17.318C0.297322 18.8072 0 20.4102 0 22.0832C0 25.4292 1.17377 28.4955 3.12317 30.8937L8.47237 26.3408C7.56231 25.1703 7.02196 23.6967 7.02196 22.0832V22.0832ZM16.2312 8.30819L15.1427 15.2566C17.6299 15.6942 19.6672 17.4734 20.479 19.8172L27.1855 17.722C25.58 12.861 21.371 9.16541 16.2312 8.30819V8.30819ZM13.9431 8.11914C8.65335 8.11914 4.03065 11.1026 1.66759 15.4741L7.9191 18.6777C9.10838 16.5748 11.3654 15.1504 13.9431 15.1504C13.9638 15.1504 13.987 15.1504 14.0077 15.153L14.2947 8.12432C14.1784 8.12432 14.0594 8.11914 13.9431 8.11914V8.11914Z" fill="url(#paint0_radial_786_25412)"/>
<path d="M67.6215 9.36426V25.7032C67.6215 31.4991 62.9161 36.2125 57.1299 36.2125C54.2084 36.2125 51.561 35.0108 49.6581 33.0711C49.5159 33.2161 49.3659 33.3534 49.2134 33.4881C47.308 35.1533 44.782 36.0701 42.101 36.0701C39.4199 36.0675 36.8939 35.1507 34.9885 33.4881C32.8245 31.5949 31.6249 28.8342 31.6094 25.7161H31.6145C31.6145 25.6514 31.6094 25.5866 31.6094 25.5193V9.36426H37.5558V25.6954C37.5739 28.9559 40.0145 30.111 42.101 30.1136C43.1455 30.1136 44.2779 29.8235 45.1517 29.1269C45.9842 28.4613 46.5815 27.4228 46.6409 25.913C46.6409 25.843 46.6409 25.7731 46.6409 25.7032V9.36426H52.5874V25.7187C52.5874 25.7809 52.5874 25.843 52.5925 25.9052V25.9363C52.714 28.3396 54.7048 30.256 57.1325 30.256C59.5602 30.256 61.6776 28.2153 61.6776 25.7032V9.36426H67.6241H67.6215Z" fill="#333333"/>
<defs>
<radialGradient id="paint0_radial_786_25412" cx="0" cy="0" r="1" gradientUnits="userSpaceOnUse" gradientTransform="translate(13.9431 22.0832) scale(13.9405 13.9641)">
<stop stop-color="#4D89FE"/>
<stop offset="1" stop-color="#355FC9"/>
</radialGradient>
</defs>
</svg>
