<svg width="154" height="47" viewBox="0 0 154 47" fill="none" xmlns="http://www.w3.org/2000/svg">
<path d="M14.998 6C6.73741 6 1.12125e-09 12.8163 2.49599e-09 21.1737C2.92987e-09 23.8114 0.668905 26.2941 1.84553 28.4589C2.62324 27.5335 3.44527 26.6406 4.31162 25.7845C5.12156 24.9814 5.96373 24.215 6.83412 23.4893C6.62861 22.7514 6.51981 21.9768 6.51981 21.1737C6.51981 16.4447 10.3237 12.5962 14.998 12.5962C17.5568 12.5962 19.8576 13.7499 21.413 15.5722C23.5809 14.8833 25.8375 14.337 28.1746 13.9375C25.6279 9.21249 20.6716 6 14.998 6V6ZM28.8959 15.4703C26.6353 15.8332 24.4634 16.3346 22.3842 16.9665C23.0772 18.2099 23.4762 19.6449 23.4762 21.1737C23.4762 25.9028 19.6723 29.7512 14.998 29.7512C11.7058 29.7512 8.84486 27.8433 7.44258 25.0589C5.73808 26.5265 4.16253 28.1409 2.73204 29.8898C5.44795 33.7913 9.93687 36.3515 14.998 36.3515C18.5319 36.3515 21.683 34.5373 23.4762 31.8956L23.4762 47L30 47L30 21.1737C30 19.1557 29.6091 17.2315 28.8959 15.4703V15.4703Z" fill="url(#paint0_linear_749_24908)"/>
<path d="M56.5369 6L56.5369 16.4073C58.9681 17.4045 61.0599 18.5414 63 19.6862L63 6L56.5369 6ZM56.5369 18.1465L56.5369 20.7952C56.5369 25.6378 53.523 28.5458 49 28.5458C44.477 28.5458 41.4631 25.6378 41.4631 20.7952L41.4631 14.8316C40.3653 14.7718 39.2196 14.7399 38.022 14.7399C37 14.7399 35.994 14.7638 35 14.8197L35 20.7952C35 29.2957 40.9242 35 49 35C57.0758 35 62.6527 29.6228 62.984 21.5332C61.0399 20.3684 58.9601 19.1876 56.5369 18.1465V18.1465ZM35 6L35 13.2201C35.994 13.1682 37.004 13.1443 38.022 13.1443C39.2196 13.1443 40.3653 13.1722 41.4631 13.2321L41.4631 6L35 6Z" fill="#333333"/>
<path d="M82.998 5C74.7339 5 68 11.6967 68 19.8628C68 20.7508 68.0771 21.6187 68.2273 22.4623C71.0321 24.085 73.8409 25.4494 77.3763 26.1599C75.6512 24.6138 74.5674 22.3695 74.5674 19.8628C74.5674 15.2893 78.3464 11.5353 82.998 11.5353C87.6496 11.5353 91.4285 15.2893 91.4285 19.8628C91.4285 22.2807 90.4219 24.4524 88.8064 25.9863C92.7761 24.9368 95.4225 22.8175 98 20.5005L98 19.8628C98 11.6967 91.2661 5 82.998 5V5ZM82.998 28.3033C76.873 28.3033 72.6354 26.7088 68.7793 24.6259C70.7723 30.5638 76.398 34.8345 82.998 34.8345C86.5577 34.8345 89.6791 33.0907 91.4285 30.5355L91.4285 35L98 35L98 22.6601C94.4849 25.6674 90.3447 28.3033 82.998 28.3033Z" fill="#333333"/>
<path d="M104.128 17.5175C104.044 18.2192 104 18.9455 104 19.6925L104 35L110.46 35L110.46 19.6925C110.46 16.9686 111.334 14.8597 112.844 13.4936C109.099 14.2035 106.435 15.6975 104.128 17.5175V17.5175ZM118.002 5C111.406 5 106.248 8.93314 104.575 15.1651C107.777 12.9901 111.825 11.3888 118.002 11.3888C124.179 11.3888 128.011 13.2625 131.545 15.6562C130.008 9.1395 124.722 5 118.002 5ZM131.912 17.9014C129.193 15.9864 126.77 14.3809 123.28 13.5844C124.714 14.9422 125.54 17.014 125.54 19.6925L125.54 35L132 35L132 19.6925C132 19.0817 131.972 18.4833 131.912 17.9014Z" fill="#333333"/>
<path d="M146.017 25.1425C143.13 24.2896 140.762 23.3119 138.723 22.2939L138.723 23.2797C138.723 33.4791 147.945 35 154 35L154 28.4901C150.894 28.4901 147.418 28.1642 146.017 25.1425V25.1425ZM138.723 20.4673C140.622 21.4611 142.813 22.4227 145.486 23.2797C145.42 22.8331 145.387 22.3462 145.387 21.8152L145.387 12.4807L152.554 12.4807L152.554 5.9708L145.387 5.9708L145.387 -1.54414e-09L138.723 -4.4786e-10L138.723 5.9708L136 5.9708L136 12.4807L138.723 12.4807L138.723 20.4673Z" fill="#333333"/>
<defs>
<linearGradient id="paint0_linear_749_24908" x1="15" y1="6" x2="15" y2="47" gradientUnits="userSpaceOnUse">
<stop stop-color="#4D89FE"/>
<stop offset="1" stop-color="#355FC9"/>
</linearGradient>
</defs>
</svg>
