<svg width="38" height="38" viewBox="0 0 38 38" fill="none" xmlns="http://www.w3.org/2000/svg">
<path d="M12.5066 14.6178C16.0935 11.1603 21.9088 11.1603 25.4957 14.6178L25.9273 15.034C26.1067 15.2068 26.1067 15.4871 25.9273 15.66L24.4507 17.0835C24.361 17.1699 24.2156 17.1699 24.1259 17.0835L23.5319 16.5108C21.0296 14.0988 16.9727 14.0988 14.4704 16.5108L13.8342 17.1241C13.7446 17.2105 13.5992 17.2105 13.5095 17.1241L12.0328 15.7006C11.8535 15.5277 11.8535 15.2474 12.0328 15.0746L12.5066 14.6178ZM28.5496 17.5617L29.8639 18.8286C30.0432 19.0015 30.0432 19.2818 29.8639 19.4547L23.9378 25.1673C23.7584 25.3402 23.4677 25.3402 23.2883 25.1673L19.0824 21.1129C19.0375 21.0697 18.9648 21.0697 18.92 21.1129L14.7141 25.1673C14.5348 25.3402 14.244 25.3402 14.0647 25.1673L8.13841 19.4546C7.95907 19.2817 7.95907 19.0014 8.13841 18.8286L9.45267 17.5617C9.63201 17.3888 9.92278 17.3888 10.1021 17.5617L14.3082 21.6161C14.353 21.6593 14.4257 21.6593 14.4705 21.6161L18.6763 17.5617C18.8557 17.3888 19.1464 17.3888 19.3258 17.5616L23.5318 21.6161C23.5767 21.6593 23.6494 21.6593 23.6942 21.6161L27.9002 17.5617C28.0795 17.3888 28.3703 17.3888 28.5496 17.5617Z" fill="#3B99FC"/>
</svg>
