<svg width="38" height="38" viewBox="0 0 38 38" fill="none" xmlns="http://www.w3.org/2000/svg">
<path d="M30.4896 8L20.8359 15.143L22.6311 10.9334L30.4896 8Z" fill="#E17726" stroke="#E17726" stroke-width="0.25" stroke-linecap="round" stroke-linejoin="round"/>
<path d="M8.22168 8L17.7894 15.2097L16.0802 10.9334L8.22168 8Z" fill="#E27625" stroke="#E27625" stroke-width="0.25" stroke-linecap="round" stroke-linejoin="round"/>
<path d="M27.0129 24.5625L24.4443 28.4864L29.9443 30.0008L31.5199 24.6483L27.0129 24.5625Z" fill="#E27625" stroke="#E27625" stroke-width="0.25" stroke-linecap="round" stroke-linejoin="round"/>
<path d="M7.2002 24.6483L8.76616 30.0008L14.2566 28.4864L11.6976 24.5625L7.2002 24.6483Z" fill="#E27625" stroke="#E27625" stroke-width="0.25" stroke-linecap="round" stroke-linejoin="round"/>
<path d="M13.9604 17.9337L12.4326 20.2386L17.8753 20.4862L17.6939 14.6289L13.9604 17.9337Z" fill="#E27625" stroke="#E27625" stroke-width="0.25" stroke-linecap="round" stroke-linejoin="round"/>
<path d="M24.7508 17.934L20.9601 14.5625L20.8359 20.4865L26.2786 20.2388L24.7508 17.934Z" fill="#E27625" stroke="#E27625" stroke-width="0.25" stroke-linecap="round" stroke-linejoin="round"/>
<path d="M14.2568 28.4856L17.5511 26.8951L14.7152 24.6855L14.2568 28.4856Z" fill="#E27625" stroke="#E27625" stroke-width="0.25" stroke-linecap="round" stroke-linejoin="round"/>
<path d="M21.1602 26.8951L24.4448 28.4856L23.996 24.6855L21.1602 26.8951Z" fill="#E27625" stroke="#E27625" stroke-width="0.25" stroke-linecap="round" stroke-linejoin="round"/>
<path d="M24.4448 28.487L21.1602 26.8965L21.4275 29.0298L21.3988 29.9346L24.4448 28.487Z" fill="#D5BFB2" stroke="#D5BFB2" stroke-width="0.25" stroke-linecap="round" stroke-linejoin="round"/>
<path d="M14.2568 28.487L17.3124 29.9346L17.2933 29.0298L17.5511 26.8965L14.2568 28.487Z" fill="#D5BFB2" stroke="#D5BFB2" stroke-width="0.25" stroke-linecap="round" stroke-linejoin="round"/>
<path d="M17.3696 23.2775L14.6387 22.4776L16.5675 21.5918L17.3696 23.2775Z" fill="#233447" stroke="#233447" stroke-width="0.25" stroke-linecap="round" stroke-linejoin="round"/>
<path d="M21.3418 23.2775L22.1439 21.5918L24.0823 22.4776L21.3418 23.2775Z" fill="#233447" stroke="#233447" stroke-width="0.25" stroke-linecap="round" stroke-linejoin="round"/>
<path d="M14.2563 28.4864L14.7337 24.5625L11.6973 24.6483L14.2563 28.4864Z" fill="#CC6228" stroke="#CC6228" stroke-width="0.25" stroke-linecap="round" stroke-linejoin="round"/>
<path d="M23.9775 24.5625L24.4454 28.4864L27.014 24.6483L23.9775 24.5625Z" fill="#CC6228" stroke="#CC6228" stroke-width="0.25" stroke-linecap="round" stroke-linejoin="round"/>
<path d="M26.2786 20.2383L20.8359 20.4859L21.342 23.2765L22.1441 21.5907L24.0825 22.4765L26.2786 20.2383Z" fill="#CC6228" stroke="#CC6228" stroke-width="0.25" stroke-linecap="round" stroke-linejoin="round"/>
<path d="M14.6383 22.4765L16.5672 21.5907L17.3693 23.2765L17.8753 20.4859L12.4326 20.2383L14.6383 22.4765Z" fill="#CC6228" stroke="#CC6228" stroke-width="0.25" stroke-linecap="round" stroke-linejoin="round"/>
<path d="M12.4326 20.2383L14.7148 24.686L14.6383 22.4765L12.4326 20.2383Z" fill="#E27525" stroke="#E27525" stroke-width="0.25" stroke-linecap="round" stroke-linejoin="round"/>
<path d="M24.082 22.4765L23.9961 24.686L26.2782 20.2383L24.082 22.4765Z" fill="#E27525" stroke="#E27525" stroke-width="0.25" stroke-linecap="round" stroke-linejoin="round"/>
<path d="M17.8753 20.4863L17.3691 23.2769L18.0089 26.5722L18.1521 22.2293L17.8753 20.4863Z" fill="#E27525" stroke="#E27525" stroke-width="0.25" stroke-linecap="round" stroke-linejoin="round"/>
<path d="M20.8358 20.4863L20.5684 22.2198L20.7021 26.5722L21.3418 23.2769L20.8358 20.4863Z" fill="#E27525" stroke="#E27525" stroke-width="0.25" stroke-linecap="round" stroke-linejoin="round"/>
<path d="M21.3419 23.2766L20.7021 26.5719L21.1605 26.8957L23.9965 24.6861L24.0824 22.4766L21.3419 23.2766Z" fill="#F5841F" stroke="#F5841F" stroke-width="0.25" stroke-linecap="round" stroke-linejoin="round"/>
<path d="M14.6387 22.4766L14.7151 24.6861L17.551 26.8957L18.0094 26.5719L17.3696 23.2766L14.6387 22.4766Z" fill="#F5841F" stroke="#F5841F" stroke-width="0.25" stroke-linecap="round" stroke-linejoin="round"/>
<path d="M21.3992 29.934L21.4278 29.0292L21.1796 28.8197H17.532L17.2933 29.0292L17.3124 29.934L14.2568 28.4863L15.3263 29.3625L17.4938 30.8578H21.2082L23.3853 29.3625L24.4452 28.4863L21.3992 29.934Z" fill="#C0AC9D" stroke="#C0AC9D" stroke-width="0.25" stroke-linecap="round" stroke-linejoin="round"/>
<path d="M21.1601 26.896L20.7018 26.5723H18.0091L17.5508 26.896L17.293 29.0295L17.5317 28.8199H21.1793L21.4275 29.0295L21.1601 26.896Z" fill="#161616" stroke="#161616" stroke-width="0.25" stroke-linecap="round" stroke-linejoin="round"/>
<path d="M30.8997 15.6097L31.7114 11.6668L30.4891 8L21.1602 14.905L24.7504 17.9336L29.8207 19.4098L30.9379 18.1051L30.451 17.7526L31.2243 17.0479L30.6324 16.5907L31.4058 16.0002L30.8997 15.6097Z" fill="#763E1A" stroke="#763E1A" stroke-width="0.25" stroke-linecap="round" stroke-linejoin="round"/>
<path d="M7 11.6668L7.82118 15.6097L7.29601 16.0002L8.07899 16.5907L7.48698 17.0479L8.26042 17.7526L7.77344 18.1051L8.89063 19.4098L13.961 17.9336L17.5512 14.905L8.22222 8L7 11.6668Z" fill="#763E1A" stroke="#763E1A" stroke-width="0.25" stroke-linecap="round" stroke-linejoin="round"/>
<path d="M29.8208 19.4098L24.7504 17.9336L26.2782 20.2384L23.9961 24.6861L27.0135 24.6481H31.5204L29.8208 19.4098Z" fill="#F5841F" stroke="#F5841F" stroke-width="0.25" stroke-linecap="round" stroke-linejoin="round"/>
<path d="M13.9606 17.9336L8.8903 19.4098L7.2002 24.6481H11.6976L14.7149 24.6861L12.4328 20.2384L13.9606 17.9336Z" fill="#F5841F" stroke="#F5841F" stroke-width="0.25" stroke-linecap="round" stroke-linejoin="round"/>
<path d="M20.8353 20.4872L21.1599 14.9061L22.6304 10.9346H16.0801L17.5505 14.9061L17.8752 20.4872L17.9993 22.2396L18.0089 26.5731H20.7016L20.7112 22.2396L20.8353 20.4872Z" fill="#F5841F" stroke="#F5841F" stroke-width="0.25" stroke-linecap="round" stroke-linejoin="round"/>
</svg>
