<svg width="201" height="204" viewBox="0 0 201 204" fill="none" xmlns="http://www.w3.org/2000/svg">
<path d="M66.858 62.1992C39.4103 85.3364 35.916 126.343 59.0532 153.791C82.1904 181.239 123.197 184.733 150.645 161.596C178.093 138.459 181.587 97.4517 158.45 70.004C135.313 42.5564 94.3057 39.062 66.858 62.1992Z" fill="url(#paint0_radial_773_26416)"/>
<path style="mix-blend-mode:multiply" d="M85.6618 29.4885C118.036 27.3362 145.678 46.5677 147.405 72.4333C149.125 98.3054 124.281 121.027 91.9058 123.193C59.5318 125.345 31.8896 106.114 30.1621 80.2483C28.4423 54.3762 53.2866 31.6548 85.6618 29.4885Z" fill="url(#paint1_radial_773_26416)"/>
<path style="mix-blend-mode:overlay" opacity="0.7" d="M152.486 75.0313C157.563 70.5033 148.61 61.8063 132.483 55.5992C116.356 49.3921 99.1767 48.0347 94.0935 52.555C89.0103 57.0754 97.9632 65.7724 114.09 71.9795C130.217 78.1866 147.403 79.5516 152.486 75.0313Z" fill="url(#paint2_radial_773_26416)"/>
<path style="mix-blend-mode:overlay" opacity="0.5" d="M105.655 124.159C124.001 129.895 136.243 144.884 132.979 157.628C129.72 170.38 112.197 176.061 93.8436 170.331C75.4901 164.602 63.2622 149.615 66.5204 136.863C69.7862 124.105 87.3095 118.423 105.663 124.153L105.655 124.159Z" fill="url(#paint3_radial_773_26416)"/>
<defs>
<radialGradient id="paint0_radial_773_26416" cx="0" cy="0" r="1" gradientUnits="userSpaceOnUse" gradientTransform="translate(116.52 149.817) rotate(139.871) scale(101.97)">
<stop stop-color="white"/>
<stop offset="0.27" stop-color="#C7DDFF"/>
<stop offset="0.71" stop-color="#C3E1FD"/>
<stop offset="0.84" stop-color="#BFE4FF"/>
<stop offset="1" stop-color="#D5E8FF"/>
</radialGradient>
<radialGradient id="paint1_radial_773_26416" cx="0" cy="0" r="1" gradientUnits="userSpaceOnUse" gradientTransform="translate(89.9621 75.0578) rotate(-93.8094) scale(45.064 56.33)">
<stop stop-color="#9DB9FF"/>
<stop offset="1" stop-color="#D7E0FF" stop-opacity="0"/>
</radialGradient>
<radialGradient id="paint2_radial_773_26416" cx="0" cy="0" r="1" gradientUnits="userSpaceOnUse" gradientTransform="translate(-1889.68 -726.696) rotate(21.0506) scale(31.3624 10.9848)">
<stop stop-color="white"/>
<stop offset="0.1" stop-color="white" stop-opacity="0.85"/>
<stop offset="0.29" stop-color="white" stop-opacity="0.59"/>
<stop offset="0.47" stop-color="white" stop-opacity="0.38"/>
<stop offset="0.63" stop-color="white" stop-opacity="0.22"/>
<stop offset="0.78" stop-color="white" stop-opacity="0.1"/>
<stop offset="0.91" stop-color="white" stop-opacity="0.03"/>
<stop offset="1" stop-color="white" stop-opacity="0"/>
</radialGradient>
<radialGradient id="paint3_radial_773_26416" cx="0" cy="0" r="1" gradientUnits="userSpaceOnUse" gradientTransform="translate(136.155 -2.07292) rotate(-75.6594) scale(23.8953 34.7568)">
<stop stop-color="white"/>
<stop offset="0.1" stop-color="white" stop-opacity="0.85"/>
<stop offset="0.29" stop-color="white" stop-opacity="0.59"/>
<stop offset="0.47" stop-color="white" stop-opacity="0.38"/>
<stop offset="0.63" stop-color="white" stop-opacity="0.22"/>
<stop offset="0.78" stop-color="white" stop-opacity="0.1"/>
<stop offset="0.91" stop-color="white" stop-opacity="0.03"/>
<stop offset="1" stop-color="white" stop-opacity="0"/>
</radialGradient>
</defs>
</svg>
