<svg width="229" height="229" viewBox="0 0 229 229" fill="none" xmlns="http://www.w3.org/2000/svg">
<path d="M114.157 228.233C177.117 228.233 228.157 177.193 228.157 114.233C228.157 51.2722 177.117 0.232666 114.157 0.232666C51.1965 0.232666 0.156921 51.2722 0.156921 114.233C0.156921 177.193 51.1965 228.233 114.157 228.233Z" fill="url(#paint0_radial_604_23800)"/>
<path style="mix-blend-mode:overlay" opacity="0.7" d="M13.8371 114.242C1.91715 114.572 4.08713 136.352 18.6971 162.902C33.2971 189.452 54.8072 210.702 66.7372 210.382C78.6572 210.062 76.4771 188.282 61.8671 161.732C47.2571 135.182 25.7571 113.922 13.8371 114.232V114.242Z" fill="url(#paint1_radial_604_23800)"/>
<path style="mix-blend-mode:overlay" opacity="0.5" d="M132.167 101.293C114.047 72.8631 114.576 38.9331 133.366 25.5231C152.156 12.1031 182.077 24.2931 200.207 52.7231C218.337 81.1531 217.797 115.073 199.017 128.483C180.227 141.893 150.307 129.713 132.167 101.283V101.293Z" fill="url(#paint2_radial_604_23800)"/>
<defs>
<radialGradient id="paint0_radial_604_23800" cx="0" cy="0" r="1" gradientUnits="userSpaceOnUse" gradientTransform="translate(146.597 54.6027) scale(178.84 178.84)">
<stop stop-color="white"/>
<stop offset="0.27" stop-color="#F6FBFB"/>
<stop offset="0.71" stop-color="#DFF0F0"/>
<stop offset="0.84" stop-color="#D7ECED"/>
<stop offset="1" stop-color="#E8F3F5"/>
</radialGradient>
<radialGradient id="paint1_radial_604_23800" cx="0" cy="0" r="1" gradientUnits="userSpaceOnUse" gradientTransform="translate(1116.53 2150.23) rotate(-118.82) scale(54.9827 19.2579)">
<stop stop-color="white"/>
<stop offset="0.1" stop-color="white" stop-opacity="0.85"/>
<stop offset="0.29" stop-color="white" stop-opacity="0.59"/>
<stop offset="0.47" stop-color="white" stop-opacity="0.38"/>
<stop offset="0.63" stop-color="white" stop-opacity="0.22"/>
<stop offset="0.78" stop-color="white" stop-opacity="0.1"/>
<stop offset="0.91" stop-color="white" stop-opacity="0.03"/>
<stop offset="1" stop-color="white" stop-opacity="0"/>
</radialGradient>
<radialGradient id="paint2_radial_604_23800" cx="0" cy="0" r="1" gradientUnits="userSpaceOnUse" gradientTransform="translate(42.7677 167.249) rotate(144.47) scale(41.899 60.944)">
<stop stop-color="white"/>
<stop offset="0.1" stop-color="white" stop-opacity="0.85"/>
<stop offset="0.29" stop-color="white" stop-opacity="0.59"/>
<stop offset="0.47" stop-color="white" stop-opacity="0.38"/>
<stop offset="0.63" stop-color="white" stop-opacity="0.22"/>
<stop offset="0.78" stop-color="white" stop-opacity="0.1"/>
<stop offset="0.91" stop-color="white" stop-opacity="0.03"/>
<stop offset="1" stop-color="white" stop-opacity="0"/>
</radialGradient>
</defs>
</svg>
