<svg width="130" height="129" viewBox="0 0 130 129" fill="none" xmlns="http://www.w3.org/2000/svg">
<path d="M35.6788 29.9939C16.4654 46.1899 14.0194 74.8949 30.2154 94.1082C46.4114 113.322 75.1164 115.768 94.3298 99.5716C113.543 83.3756 115.989 54.6706 99.7932 35.4572C83.5971 16.2439 54.8922 13.7978 35.6788 29.9939Z" fill="url(#paint0_radial_772_26363)"/>
<path style="mix-blend-mode:overlay" opacity="0.7" d="M95.6191 38.9763C99.1747 35.809 92.9022 29.7178 81.6193 25.3783C70.3363 21.0388 58.3042 20.0774 54.7485 23.2447C51.1928 26.412 57.4589 32.4955 68.7483 36.8427C80.0377 41.1898 92.0634 42.1436 95.6255 38.9839L95.6191 38.9763Z" fill="url(#paint1_radial_772_26363)"/>
<path style="mix-blend-mode:overlay" opacity="0.5" d="M62.8394 73.3703C75.6826 77.3886 84.2488 87.8765 81.9626 96.8009C79.6827 105.733 67.4147 109.705 54.5638 105.693C41.7129 101.681 33.1544 91.187 35.433 82.269C37.7193 73.3446 49.9808 69.365 62.8317 73.3768L62.8394 73.3703Z" fill="url(#paint2_radial_772_26363)"/>
<defs>
<radialGradient id="paint0_radial_772_26363" cx="0" cy="0" r="1" gradientUnits="userSpaceOnUse" gradientTransform="translate(70.4423 91.3265) rotate(139.871) scale(71.38)">
<stop stop-color="white"/>
<stop offset="0.27" stop-color="#EEF6FE"/>
<stop offset="0.71" stop-color="#C8E3FC"/>
<stop offset="0.84" stop-color="#C6E8F2"/>
<stop offset="1" stop-color="#AEDFFB"/>
</radialGradient>
<radialGradient id="paint1_radial_772_26363" cx="0" cy="0" r="1" gradientUnits="userSpaceOnUse" gradientTransform="translate(-1986.41 -778.473) rotate(21.0506) scale(21.9458 7.6866)">
<stop stop-color="white"/>
<stop offset="0.1" stop-color="white" stop-opacity="0.85"/>
<stop offset="0.29" stop-color="white" stop-opacity="0.59"/>
<stop offset="0.47" stop-color="white" stop-opacity="0.38"/>
<stop offset="0.63" stop-color="white" stop-opacity="0.22"/>
<stop offset="0.78" stop-color="white" stop-opacity="0.1"/>
<stop offset="0.91" stop-color="white" stop-opacity="0.03"/>
<stop offset="1" stop-color="white" stop-opacity="0"/>
</radialGradient>
<radialGradient id="paint2_radial_772_26363" cx="0" cy="0" r="1" gradientUnits="userSpaceOnUse" gradientTransform="translate(93.4708 -53.1255) rotate(-75.6594) scale(16.7167 24.3152)">
<stop stop-color="white"/>
<stop offset="0.1" stop-color="white" stop-opacity="0.85"/>
<stop offset="0.29" stop-color="white" stop-opacity="0.59"/>
<stop offset="0.47" stop-color="white" stop-opacity="0.38"/>
<stop offset="0.63" stop-color="white" stop-opacity="0.22"/>
<stop offset="0.78" stop-color="white" stop-opacity="0.1"/>
<stop offset="0.91" stop-color="white" stop-opacity="0.03"/>
<stop offset="1" stop-color="white" stop-opacity="0"/>
</radialGradient>
</defs>
</svg>
