<svg width="166" height="164" viewBox="0 0 166 164" fill="none" xmlns="http://www.w3.org/2000/svg">
<g opacity="0.8">
<path d="M10.6205 113.305L12.8533 82.5964L34.3845 73.9101L32.1516 104.619L10.6205 113.305Z" fill="url(#paint0_linear_604_23842)"/>
<path d="M117.024 63.1426L114.788 93.8577C114.331 100.106 109.08 105.994 99.193 109.984C79.7642 117.819 49.6963 115.419 32.1577 104.621L34.3905 73.9127C51.9388 84.7069 82.0035 87.114 101.432 79.2786C111.32 75.2889 116.573 69.3938 117.027 63.1523L117.024 63.1426Z" fill="url(#paint1_linear_604_23842)"/>
<path d="M102.605 76.1897L104.838 45.4811L126.359 36.798L124.127 67.5067L102.605 76.1897Z" fill="url(#paint2_linear_604_23842)"/>
<path d="M145.998 65.2531L143.762 95.9682C144.464 86.2689 137.998 76.0449 124.126 67.5068L126.359 36.7981C140.231 45.3363 146.703 55.5635 145.995 65.2596L145.998 65.2531Z" fill="url(#paint3_linear_604_23842)"/>
<g style="mix-blend-mode:overlay">
<path d="M118.644 121.217C87.3447 133.847 38.8919 129.97 10.6255 112.578L32.1567 103.892C49.705 114.686 79.7697 117.093 99.1985 109.258C118.618 101.426 120.156 86.2642 102.608 75.4701L124.129 66.787C152.396 84.1787 149.93 108.597 118.64 121.224L118.644 121.217Z" fill="#F686F2"/>
</g>
<path d="M118.638 121.945C87.3388 134.575 38.8861 130.698 10.6197 113.306L32.1509 104.62C49.6992 115.414 79.7638 117.821 99.1862 109.982C118.605 102.15 120.144 86.9886 102.595 76.1944L124.117 67.5114C152.383 84.9031 149.917 109.321 118.628 121.948L118.638 121.945Z" fill="url(#paint4_linear_604_23842)"/>
</g>
<defs>
<linearGradient id="paint0_linear_604_23842" x1="71.8272" y1="175.409" x2="24.0036" y2="96.1954" gradientUnits="userSpaceOnUse">
<stop stop-color="#FFFAFF"/>
<stop offset="0.39" stop-color="#F2C7F5"/>
<stop offset="0.75" stop-color="#ECB1ED"/>
<stop offset="1" stop-color="#E9B7EA"/>
</linearGradient>
<linearGradient id="paint1_linear_604_23842" x1="-20.3033" y1="72.348" x2="93.0406" y2="89.1922" gradientUnits="userSpaceOnUse">
<stop stop-color="#FCE8FF"/>
<stop offset="0.24" stop-color="#FDE0FF"/>
<stop offset="0.69" stop-color="#FEC7FF"/>
<stop offset="1" stop-color="#F2BCFB"/>
</linearGradient>
<linearGradient id="paint2_linear_604_23842" x1="192.714" y1="99.6369" x2="100.878" y2="49.0728" gradientUnits="userSpaceOnUse">
<stop stop-color="white"/>
<stop offset="0.39" stop-color="#F3C6F4"/>
<stop offset="0.75" stop-color="#EDAEEE"/>
<stop offset="1" stop-color="#DD98E8"/>
</linearGradient>
<linearGradient id="paint3_linear_604_23842" x1="147.432" y1="87.8964" x2="112.467" y2="18.1429" gradientUnits="userSpaceOnUse">
<stop stop-color="white"/>
<stop offset="0.24" stop-color="#F8D2FC"/>
<stop offset="0.69" stop-color="#F9D3FF"/>
<stop offset="1" stop-color="#F2BAF7"/>
</linearGradient>
<linearGradient id="paint4_linear_604_23842" x1="137.286" y1="77.3786" x2="25.4382" y2="139.912" gradientUnits="userSpaceOnUse">
<stop stop-color="#FFE7FF"/>
<stop offset="0.24" stop-color="#FEE0FF"/>
<stop offset="0.69" stop-color="#FEC9FC"/>
<stop offset="1" stop-color="#FEBFFF"/>
</linearGradient>
</defs>
</svg>
