<svg width="166" height="185" viewBox="0 0 166 185" fill="none" xmlns="http://www.w3.org/2000/svg">
<path d="M95.6988 42.163C60.8911 33.3806 25.5544 54.4783 16.7721 89.286C7.98973 124.094 29.0874 159.43 63.8951 168.213C98.7027 176.995 134.039 155.897 142.822 121.09C151.604 86.282 130.506 50.9453 95.6988 42.163Z" fill="url(#paint0_radial_647_23865)"/>
<path style="mix-blend-mode:multiply" d="M133.235 38.3387C153.878 63.3697 154.397 97.0397 134.403 113.54C114.399 130.037 81.4485 123.126 60.7927 98.1023C40.1491 73.0713 39.6305 39.4013 59.6247 22.9014C79.6285 6.40388 112.579 13.315 133.235 38.3387Z" fill="url(#paint1_radial_647_23865)"/>
<path style="mix-blend-mode:overlay" opacity="0.7" d="M135.259 119.181C141.899 120.661 143.735 108.315 139.362 91.597C134.989 74.8791 126.064 60.1378 119.427 58.6488C112.789 57.1597 110.953 69.5057 115.326 86.2235C119.699 102.941 128.621 117.692 135.259 119.181Z" fill="url(#paint2_radial_647_23865)"/>
<path style="mix-blend-mode:overlay" opacity="0.5" d="M68.0335 109.83C74.0839 128.075 69.0592 146.764 56.8056 151.551C44.5495 156.349 29.7082 145.436 23.6481 127.189C17.5879 108.942 22.6199 90.2658 34.876 85.4684C47.1418 80.6734 61.9831 91.5859 68.0432 109.833L68.0335 109.83Z" fill="url(#paint3_radial_647_23865)"/>
<defs>
<radialGradient id="paint0_radial_647_23865" cx="0" cy="0" r="1" gradientUnits="userSpaceOnUse" gradientTransform="translate(53.5412 133.629) rotate(-165.839) scale(101.97)">
<stop stop-color="white"/>
<stop offset="0.27" stop-color="#FBF6FA"/>
<stop offset="0.71" stop-color="#F0DFEF"/>
<stop offset="0.84" stop-color="#EDD7EB"/>
<stop offset="1" stop-color="#F4E8F5"/>
</radialGradient>
<radialGradient id="paint1_radial_647_23865" cx="0" cy="0" r="1" gradientUnits="userSpaceOnUse" gradientTransform="translate(98.7433 68.4284) rotate(-39.5192) scale(45.064 56.33)">
<stop stop-color="#E8C6E7"/>
<stop offset="1" stop-color="#FFEDFF" stop-opacity="0"/>
</radialGradient>
<radialGradient id="paint2_radial_647_23865" cx="0" cy="0" r="1" gradientUnits="userSpaceOnUse" gradientTransform="translate(-405.725 -2006.98) rotate(75.3408) scale(31.3624 10.9848)">
<stop stop-color="white"/>
<stop offset="0.1" stop-color="white" stop-opacity="0.85"/>
<stop offset="0.29" stop-color="white" stop-opacity="0.59"/>
<stop offset="0.47" stop-color="white" stop-opacity="0.38"/>
<stop offset="0.63" stop-color="white" stop-opacity="0.22"/>
<stop offset="0.78" stop-color="white" stop-opacity="0.1"/>
<stop offset="0.91" stop-color="white" stop-opacity="0.03"/>
<stop offset="1" stop-color="white" stop-opacity="0"/>
</radialGradient>
<radialGradient id="paint3_radial_647_23865" cx="0" cy="0" r="1" gradientUnits="userSpaceOnUse" gradientTransform="translate(188.334 60.9169) rotate(-21.3692) scale(23.8953 34.7568)">
<stop stop-color="white"/>
<stop offset="0.1" stop-color="white" stop-opacity="0.85"/>
<stop offset="0.29" stop-color="white" stop-opacity="0.59"/>
<stop offset="0.47" stop-color="white" stop-opacity="0.38"/>
<stop offset="0.63" stop-color="white" stop-opacity="0.22"/>
<stop offset="0.78" stop-color="white" stop-opacity="0.1"/>
<stop offset="0.91" stop-color="white" stop-opacity="0.03"/>
<stop offset="1" stop-color="white" stop-opacity="0"/>
</radialGradient>
</defs>
</svg>
