<svg width="278" height="281" viewBox="0 0 278 281" fill="none" xmlns="http://www.w3.org/2000/svg">
<path d="M167.292 28.9924C106.27 13.4904 44.2346 50.3918 28.7325 111.414C13.2305 172.436 50.1319 234.471 111.154 249.973C172.176 265.475 234.211 228.574 249.713 167.552C265.215 106.53 228.314 44.4945 167.292 28.9924Z" fill="url(#paint0_radial_771_26258)"/>
<path style="mix-blend-mode:overlay" opacity="0.7" d="M236.457 164.174C248.091 166.789 251.351 145.146 243.727 115.816C236.114 86.4882 220.498 60.5962 208.857 57.969C197.225 55.3442 193.975 76.9905 201.598 106.32C209.222 135.65 224.825 161.549 236.454 164.184L236.457 164.174Z" fill="url(#paint1_radial_771_26258)"/>
<path style="mix-blend-mode:overlay" opacity="0.5" d="M118.582 147.59C129.144 179.606 120.276 212.361 98.763 220.732C77.2472 229.112 51.2497 209.931 40.6778 177.912C30.1059 145.893 38.981 113.15 60.4847 104.777C81.998 96.4066 107.998 115.578 118.579 147.6L118.582 147.59Z" fill="url(#paint2_radial_771_26258)"/>
<path style="mix-blend-mode:multiply" d="M81.1101 46.0062C110.018 31.2703 140.318 32.7872 148.78 49.3919C157.242 65.9966 140.677 91.4001 111.766 106.146C82.8582 120.882 52.5589 119.365 44.0968 102.76C35.6347 86.1553 52.1995 60.7518 81.1101 46.0062Z" fill="url(#paint3_radial_771_26258)"/>
<path style="mix-blend-mode:multiply" d="M140.583 169.708C169.491 154.972 202.477 161.753 214.25 184.863C226.025 207.963 212.144 238.64 183.236 253.376C154.328 268.112 121.344 261.322 109.569 238.221C97.7945 215.121 111.675 184.444 140.583 169.708Z" fill="url(#paint4_radial_771_26258)"/>
<defs>
<radialGradient id="paint0_radial_771_26258" cx="0" cy="0" r="1" gradientUnits="userSpaceOnUse" gradientTransform="translate(93.0997 189.29) rotate(-165.746) scale(178.84 178.84)">
<stop stop-color="white"/>
<stop offset="0.27" stop-color="#DCEAFF"/>
<stop offset="0.71" stop-color="#C1DAF8"/>
<stop offset="0.84" stop-color="#C1DAF8"/>
<stop offset="1" stop-color="#C3DCF9"/>
</radialGradient>
<radialGradient id="paint1_radial_771_26258" cx="0" cy="0" r="1" gradientUnits="userSpaceOnUse" gradientTransform="translate(-330.993 -2080.64) rotate(75.4338) scale(54.9827 19.2579)">
<stop stop-color="white"/>
<stop offset="0.1" stop-color="white" stop-opacity="0.85"/>
<stop offset="0.29" stop-color="white" stop-opacity="0.59"/>
<stop offset="0.47" stop-color="white" stop-opacity="0.38"/>
<stop offset="0.63" stop-color="white" stop-opacity="0.22"/>
<stop offset="0.78" stop-color="white" stop-opacity="0.1"/>
<stop offset="0.91" stop-color="white" stop-opacity="0.03"/>
<stop offset="1" stop-color="white" stop-opacity="0"/>
</radialGradient>
<radialGradient id="paint2_radial_771_26258" cx="0" cy="0" r="1" gradientUnits="userSpaceOnUse" gradientTransform="translate(221.468 105.676) rotate(-21.2762) scale(41.899 60.944)">
<stop stop-color="white"/>
<stop offset="0.1" stop-color="white" stop-opacity="0.85"/>
<stop offset="0.29" stop-color="white" stop-opacity="0.59"/>
<stop offset="0.47" stop-color="white" stop-opacity="0.38"/>
<stop offset="0.63" stop-color="white" stop-opacity="0.22"/>
<stop offset="0.78" stop-color="white" stop-opacity="0.1"/>
<stop offset="0.91" stop-color="white" stop-opacity="0.03"/>
<stop offset="1" stop-color="white" stop-opacity="0"/>
</radialGradient>
<radialGradient id="paint3_radial_771_26258" cx="0" cy="0" r="1" gradientUnits="userSpaceOnUse" gradientTransform="translate(97.3784 75.1639) rotate(-117.016) scale(32.1081 56.33)">
<stop stop-color="#C4D8FF"/>
<stop offset="1" stop-color="#D6DCFF" stop-opacity="0"/>
</radialGradient>
<radialGradient id="paint4_radial_771_26258" cx="0" cy="0" r="1" gradientUnits="userSpaceOnUse" gradientTransform="translate(162.558 210.065) rotate(-117.006) scale(45.072 56.34)">
<stop stop-color="#BED3F2"/>
<stop offset="1" stop-color="#DCE2FF" stop-opacity="0"/>
</radialGradient>
</defs>
</svg>
