<svg width="112" height="112" viewBox="0 0 112 112" fill="none" xmlns="http://www.w3.org/2000/svg">
<path d="M67.2107 11.8337C42.8553 5.64644 18.0957 20.3746 11.9085 44.73C5.72127 69.0853 20.4495 93.845 44.8048 100.032C69.1601 106.219 93.9198 91.4912 100.107 67.1359C106.294 42.7805 91.566 18.0209 67.2107 11.8337Z" fill="url(#paint0_radial_771_26264)"/>
<path style="mix-blend-mode:overlay" opacity="0.7" d="M94.8154 65.792C99.4609 66.838 100.76 58.1916 97.7167 46.4922C94.6736 34.7928 88.4482 24.4516 83.8027 23.4056C79.1572 22.3596 77.8608 30.9963 80.9014 42.7054C83.942 54.4145 90.1699 64.746 94.813 65.8017L94.8154 65.792Z" fill="url(#paint1_radial_771_26264)"/>
<path style="mix-blend-mode:overlay" opacity="0.5" d="M47.7659 59.1742C51.9787 71.955 48.4414 85.0264 39.855 88.3651C31.2661 91.7134 20.8928 84.0535 16.6703 71.2703C12.4477 58.4871 15.9948 45.4181 24.5715 42.077C33.1579 38.7383 43.5337 46.3885 47.7562 59.1718L47.7659 59.1742Z" fill="url(#paint2_radial_771_26264)"/>
<defs>
<radialGradient id="paint0_radial_771_26264" cx="0" cy="0" r="1" gradientUnits="userSpaceOnUse" gradientTransform="translate(37.5964 75.8117) rotate(-165.746) scale(71.38)">
<stop stop-color="white"/>
<stop offset="0.27" stop-color="#EEF6FE"/>
<stop offset="0.71" stop-color="#C8E3FC"/>
<stop offset="0.84" stop-color="#C6E8F2"/>
<stop offset="1" stop-color="#AEDFFB"/>
</radialGradient>
<radialGradient id="paint1_radial_771_26264" cx="0" cy="0" r="1" gradientUnits="userSpaceOnUse" gradientTransform="translate(-453.145 -2102.8) rotate(75.4339) scale(21.9458 7.6866)">
<stop stop-color="white"/>
<stop offset="0.1" stop-color="white" stop-opacity="0.85"/>
<stop offset="0.29" stop-color="white" stop-opacity="0.59"/>
<stop offset="0.47" stop-color="white" stop-opacity="0.38"/>
<stop offset="0.63" stop-color="white" stop-opacity="0.22"/>
<stop offset="0.78" stop-color="white" stop-opacity="0.1"/>
<stop offset="0.91" stop-color="white" stop-opacity="0.03"/>
<stop offset="1" stop-color="white" stop-opacity="0"/>
</radialGradient>
<radialGradient id="paint2_radial_771_26264" cx="0" cy="0" r="1" gradientUnits="userSpaceOnUse" gradientTransform="translate(168.437 10.4093) rotate(-21.2762) scale(16.7167 24.3152)">
<stop stop-color="white"/>
<stop offset="0.1" stop-color="white" stop-opacity="0.85"/>
<stop offset="0.29" stop-color="white" stop-opacity="0.59"/>
<stop offset="0.47" stop-color="white" stop-opacity="0.38"/>
<stop offset="0.63" stop-color="white" stop-opacity="0.22"/>
<stop offset="0.78" stop-color="white" stop-opacity="0.1"/>
<stop offset="0.91" stop-color="white" stop-opacity="0.03"/>
<stop offset="1" stop-color="white" stop-opacity="0"/>
</radialGradient>
</defs>
</svg>
