<svg width="112" height="111" viewBox="0 0 112 111" fill="none" xmlns="http://www.w3.org/2000/svg">
<path d="M67.3422 11.454C42.9769 5.30635 18.2412 20.0747 12.0935 44.4401C5.94589 68.8055 20.7143 93.5411 45.0796 99.6888C69.445 105.836 94.1807 91.068 100.328 66.7027C106.476 42.3373 91.7076 17.6016 67.3422 11.454Z" fill="url(#paint0_radial_647_23876)"/>
<path style="mix-blend-mode:overlay" opacity="0.7" d="M95.0344 65.3674C99.6816 66.4059 100.966 57.7574 97.9043 46.0629C94.8423 34.3684 88.6 24.0374 83.9529 22.9989C79.3057 21.9605 78.0233 30.5993 81.0829 42.3034C84.1426 54.0076 90.3872 64.329 95.0319 65.3771L95.0344 65.3674Z" fill="url(#paint1_radial_647_23876)"/>
<path style="mix-blend-mode:overlay" opacity="0.5" d="M47.9745 58.8261C52.208 71.6 48.6919 84.6772 40.111 88.0298C31.5276 91.3921 21.1418 83.749 16.8985 70.9727C12.6552 58.1964 16.1811 45.1216 24.7523 41.7666C33.3332 38.414 43.7215 46.0473 47.9647 58.8237L47.9745 58.8261Z" fill="url(#paint2_radial_647_23876)"/>
<defs>
<radialGradient id="paint0_radial_647_23876" cx="0" cy="0" r="1" gradientUnits="userSpaceOnUse" gradientTransform="translate(37.8319 75.48) rotate(-165.839) scale(71.38)">
<stop stop-color="#FFF0F0"/>
<stop offset="0.27" stop-color="#FFE0E0"/>
<stop offset="0.71" stop-color="#FECCCC"/>
<stop offset="0.84" stop-color="#FDD2D2"/>
<stop offset="1" stop-color="#F2C0C0"/>
</radialGradient>
<radialGradient id="paint1_radial_647_23876" cx="0" cy="0" r="1" gradientUnits="userSpaceOnUse" gradientTransform="translate(-456.448 -2102.33) rotate(75.3408) scale(21.9458 7.6866)">
<stop stop-color="white"/>
<stop offset="0.1" stop-color="white" stop-opacity="0.85"/>
<stop offset="0.29" stop-color="white" stop-opacity="0.59"/>
<stop offset="0.47" stop-color="white" stop-opacity="0.38"/>
<stop offset="0.63" stop-color="white" stop-opacity="0.22"/>
<stop offset="0.78" stop-color="white" stop-opacity="0.1"/>
<stop offset="0.91" stop-color="white" stop-opacity="0.03"/>
<stop offset="1" stop-color="white" stop-opacity="0"/>
</radialGradient>
<radialGradient id="paint2_radial_647_23876" cx="0" cy="0" r="1" gradientUnits="userSpaceOnUse" gradientTransform="translate(168.566 9.86523) rotate(-21.3692) scale(16.7167 24.3152)">
<stop stop-color="white"/>
<stop offset="0.1" stop-color="white" stop-opacity="0.85"/>
<stop offset="0.29" stop-color="white" stop-opacity="0.59"/>
<stop offset="0.47" stop-color="white" stop-opacity="0.38"/>
<stop offset="0.63" stop-color="white" stop-opacity="0.22"/>
<stop offset="0.78" stop-color="white" stop-opacity="0.1"/>
<stop offset="0.91" stop-color="white" stop-opacity="0.03"/>
<stop offset="1" stop-color="white" stop-opacity="0"/>
</radialGradient>
</defs>
</svg>
