<svg width="184" height="185" viewBox="0 0 184 185" fill="none" xmlns="http://www.w3.org/2000/svg">
<path d="M174.579 84.6995L162.333 114.884L137.832 116.617L150.078 86.4331L174.579 84.6995Z" fill="url(#paint0_linear_771_26300)"/>
<path d="M51.1423 100.549L63.3931 70.3595C65.8874 64.2191 73.0893 60.001 84.3409 59.2041C106.449 57.6426 135.933 69.8484 150.072 86.4271L137.827 116.611C123.677 100.033 94.1979 87.8214 72.09 89.3829C60.8384 90.1798 53.6311 94.4034 51.1421 100.538L51.1423 100.549Z" fill="url(#paint1_linear_771_26300)"/>
<path d="M69.9022 92.1102L57.6567 122.294L33.1664 124.028L45.4118 93.8437L69.9022 92.1102Z" fill="url(#paint2_linear_771_26300)"/>
<path d="M22.6632 88.9932L34.914 58.8035C31.0493 68.3382 34.2295 80.7348 45.4129 93.8455L33.1674 124.03C21.984 110.919 18.7984 98.517 22.6685 88.9877L22.6632 88.9932Z" fill="url(#paint3_linear_771_26300)"/>
<g style="mix-blend-mode:overlay">
<path d="M68.422 41.5635C104.039 39.0402 151.549 58.718 174.34 85.4271L149.838 87.1607C135.689 70.5821 106.21 58.3708 84.1017 59.9324C62.0045 61.4938 55.5198 76.2545 69.6695 92.8331L45.1792 94.5666C22.3887 67.8575 32.8208 44.0812 68.4273 41.5581L68.422 41.5635Z" fill="#A1A6AB"/>
</g>
<path d="M68.6603 40.8353C104.278 38.312 151.788 57.9897 174.578 84.6989L150.077 86.4325C135.927 69.8539 106.448 57.6426 84.3456 59.2095C62.2484 60.7709 55.7637 75.5316 69.9134 92.1102L45.4231 93.8437C22.6326 67.1346 33.0646 43.3584 68.6712 40.8352L68.6603 40.8353Z" fill="url(#paint4_linear_771_26300)"/>
<defs>
<linearGradient id="paint0_linear_771_26300" x1="133.188" y1="2.25907" x2="155.537" y2="97.5647" gradientUnits="userSpaceOnUse">
<stop stop-color="white"/>
<stop offset="0.39" stop-color="#BFE8FF"/>
<stop offset="0.75" stop-color="#CAE5FF"/>
<stop offset="1" stop-color="#BAE6FF"/>
</linearGradient>
<linearGradient id="paint1_linear_771_26300" x1="192.372" y1="135.993" x2="83.7646" y2="82.136" gradientUnits="userSpaceOnUse">
<stop stop-color="white"/>
<stop offset="0.24" stop-color="#BFE4FF"/>
<stop offset="0.69" stop-color="#A7DAFF"/>
<stop offset="1" stop-color="#B9DDFF"/>
</linearGradient>
<linearGradient id="paint2_linear_771_26300" x1="-13.1671" y1="39.1714" x2="62.8122" y2="119.968" gradientUnits="userSpaceOnUse">
<stop stop-color="white"/>
<stop offset="0.39" stop-color="#C1E1FF"/>
<stop offset="0.75" stop-color="#B9DDFF"/>
<stop offset="1" stop-color="#AADBFF"/>
</linearGradient>
<linearGradient id="paint3_linear_771_26300" x1="28.5914" y1="65.7336" x2="41.0776" y2="147.331" gradientUnits="userSpaceOnUse">
<stop stop-color="white"/>
<stop offset="0.24" stop-color="#C2DEFF"/>
<stop offset="0.69" stop-color="#C0DDFF"/>
<stop offset="1" stop-color="#ADE2FF"/>
</linearGradient>
<linearGradient id="paint4_linear_771_26300" x1="35.3801" y1="79.624" x2="168.324" y2="53.0925" gradientUnits="userSpaceOnUse">
<stop stop-color="#F3F9FF"/>
<stop offset="0.24" stop-color="#D0E3FF"/>
<stop offset="0.69" stop-color="#BCDFFF"/>
<stop offset="1" stop-color="#C8E1FF"/>
</linearGradient>
</defs>
</svg>
