<svg width="167" height="173" viewBox="0 0 167 173" fill="none" xmlns="http://www.w3.org/2000/svg">
<path d="M166.458 156.76L127.098 172.8L103.168 151.48L142.528 135.44L166.458 156.76Z" fill="url(#paint0_linear_773_26467)"/>
<path d="M39.2471 55.8312L78.6171 39.7912C86.6271 36.5312 97.1271 39.4212 108.117 49.2112C129.707 68.4512 145.147 107.121 142.527 135.431L103.167 151.471C105.777 123.151 90.347 84.4812 68.757 65.2412C57.767 55.4512 47.257 52.5612 39.257 55.8212L39.2471 55.8312Z" fill="url(#paint1_linear_773_26467)"/>
<path d="M64.2175 65.6801L24.8575 81.7201L0.9375 60.4101L40.2975 44.3701L64.2175 65.6801Z" fill="url(#paint2_linear_773_26467)"/>
<path d="M24.1176 18.6914L63.4875 2.65137C51.0575 7.72137 42.3675 21.9814 40.2975 44.3714L0.9375 60.4114C3.0075 38.0214 11.6975 23.7514 24.1275 18.6914H24.1176Z" fill="url(#paint3_linear_773_26467)"/>
<g style="mix-blend-mode:overlay">
<path d="M110.107 18.2702C144.897 49.2602 169.767 111.58 165.557 157.2L141.627 135.88C144.237 107.56 128.807 68.8902 107.217 49.6502C85.6372 30.4202 65.9372 37.8002 63.3272 66.1202L39.4072 44.8102C43.6172 -0.809811 75.3372 -12.7098 110.117 18.2702H110.107Z" fill="#A1A6AB"/>
</g>
<path d="M111.008 17.8305C145.798 48.8205 170.668 111.141 166.458 156.761L142.528 135.441C145.138 107.121 129.708 68.4505 108.118 49.2205C86.5376 29.9905 66.8376 37.3705 64.2276 65.6905L40.3076 44.3805C44.5176 -1.2395 76.2376 -13.1395 111.018 17.8405L111.008 17.8305Z" fill="url(#paint4_linear_773_26467)"/>
<defs>
<linearGradient id="paint0_linear_773_26467" x1="205.817" y1="43.0099" x2="137.095" y2="150.679" gradientUnits="userSpaceOnUse">
<stop stop-color="white"/>
<stop offset="0.39" stop-color="#BFE8FF"/>
<stop offset="0.75" stop-color="#CAE5FF"/>
<stop offset="1" stop-color="#BAE6FF"/>
</linearGradient>
<linearGradient id="paint1_linear_773_26467" x1="134.719" y1="220.097" x2="86.1603" y2="69.5534" gradientUnits="userSpaceOnUse">
<stop stop-color="white"/>
<stop offset="0.24" stop-color="#BFE4FF"/>
<stop offset="0.69" stop-color="#A7DAFF"/>
<stop offset="1" stop-color="#B9DDFF"/>
</linearGradient>
<linearGradient id="paint2_linear_773_26467" x1="38.0541" y1="-60.1596" x2="31.7258" y2="84.4204" gradientUnits="userSpaceOnUse">
<stop stop-color="white"/>
<stop offset="0.39" stop-color="#C1E1FF"/>
<stop offset="0.75" stop-color="#B9DDFF"/>
<stop offset="1" stop-color="#AADBFF"/>
</linearGradient>
<linearGradient id="paint3_linear_773_26467" x1="51.2537" y1="3.05259" x2="-13.6369" y2="89.0212" gradientUnits="userSpaceOnUse">
<stop stop-color="white"/>
<stop offset="0.24" stop-color="#C2DEFF"/>
<stop offset="0.69" stop-color="#C0DDFF"/>
<stop offset="1" stop-color="#ADE2FF"/>
</linearGradient>
<linearGradient id="paint4_linear_773_26467" x1="44.4525" y1="22.0465" x2="190.302" y2="122.136" gradientUnits="userSpaceOnUse">
<stop stop-color="#F3F9FF"/>
<stop offset="0.24" stop-color="#D0E3FF"/>
<stop offset="0.69" stop-color="#BCDFFF"/>
<stop offset="1" stop-color="#C8E1FF"/>
</linearGradient>
</defs>
</svg>
