<svg width="158" height="157" viewBox="0 0 158 157" fill="none" xmlns="http://www.w3.org/2000/svg">
<path d="M9.84847 102.762L13.7786 74.1758L34.4368 67.3433L30.5066 95.9297L9.84847 102.762Z" fill="url(#paint0_linear_773_26489)"/>
<path d="M112.372 62.2312L108.438 90.8235C107.636 96.6396 102.372 101.832 92.8859 104.97C74.245 111.133 46.2679 107.084 30.5125 95.9341L34.4426 67.3477C50.2073 78.4955 78.181 82.55 96.8219 76.3873C106.309 73.249 111.575 68.0506 112.374 62.2404L112.372 62.2312Z" fill="url(#paint1_linear_773_26489)"/>
<path d="M98.1053 73.5683L102.035 44.9819L122.684 38.1519L118.754 66.7383L98.1053 73.5683Z" fill="url(#paint2_linear_773_26489)"/>
<path d="M139.344 65.9412L135.41 94.5335C136.649 85.5043 131.215 75.5544 118.753 66.737L122.683 38.1506C135.145 46.968 140.585 56.9212 139.34 65.947L139.344 65.9412Z" fill="url(#paint3_linear_773_26489)"/>
<g style="mix-blend-mode:overlay">
<path d="M110.401 116.644C80.3714 126.579 35.2883 120.047 9.89516 102.086L30.5533 95.2531C46.318 106.401 74.2917 110.456 92.9326 104.293C111.564 98.1326 113.912 84.0448 98.1477 72.897L118.797 66.067C144.19 84.0281 140.419 106.717 110.398 116.65L110.401 116.644Z" fill="#A1A6AB"/>
</g>
<path d="M110.356 117.321C80.3255 127.256 35.2424 120.724 9.84931 102.763L30.5074 95.9304C46.2722 107.078 74.2459 111.133 92.8809 104.967C111.512 98.8064 113.861 84.7186 98.0959 73.5708L118.745 66.7408C144.138 84.7019 140.367 107.391 110.346 117.324L110.356 117.321Z" fill="url(#paint4_linear_773_26489)"/>
<defs>
<linearGradient id="paint0_linear_773_26489" x1="63.3674" y1="164.516" x2="23.3913" y2="87.563" gradientUnits="userSpaceOnUse">
<stop stop-color="white"/>
<stop offset="0.39" stop-color="#BFE8FF"/>
<stop offset="0.75" stop-color="#CAE5FF"/>
<stop offset="1" stop-color="#BAE6FF"/>
</linearGradient>
<linearGradient id="paint1_linear_773_26489" x1="-16.6161" y1="62.6037" x2="88.379" y2="85.1557" gradientUnits="userSpaceOnUse">
<stop stop-color="white"/>
<stop offset="0.24" stop-color="#BFE4FF"/>
<stop offset="0.69" stop-color="#A7DAFF"/>
<stop offset="1" stop-color="#B9DDFF"/>
</linearGradient>
<linearGradient id="paint2_linear_773_26489" x1="180.974" y1="100.902" x2="98.1163" y2="48.1035" gradientUnits="userSpaceOnUse">
<stop stop-color="white"/>
<stop offset="0.39" stop-color="#C1E1FF"/>
<stop offset="0.75" stop-color="#B9DDFF"/>
<stop offset="1" stop-color="#AADBFF"/>
</linearGradient>
<linearGradient id="paint3_linear_773_26489" x1="139.327" y1="87.2044" x2="110.809" y2="19.8699" gradientUnits="userSpaceOnUse">
<stop stop-color="white"/>
<stop offset="0.24" stop-color="#C2DEFF"/>
<stop offset="0.69" stop-color="#C0DDFF"/>
<stop offset="1" stop-color="#ADE2FF"/>
</linearGradient>
<linearGradient id="paint4_linear_773_26489" x1="130.469" y1="76.7591" x2="22.1125" y2="128.535" gradientUnits="userSpaceOnUse">
<stop stop-color="#F3F9FF"/>
<stop offset="0.24" stop-color="#D0E3FF"/>
<stop offset="0.69" stop-color="#BCDFFF"/>
<stop offset="1" stop-color="#C8E1FF"/>
</linearGradient>
</defs>
</svg>
