<svg width="197" height="198" viewBox="0 0 197 198" fill="none" xmlns="http://www.w3.org/2000/svg">
<path d="M190.031 105.836C193.654 55.1718 155.519 11.1635 104.855 7.54071C54.1908 3.91793 10.1824 42.0526 6.55961 92.7169C2.93684 143.381 41.0715 187.389 91.7358 191.012C142.4 194.635 186.408 156.5 190.031 105.836Z" fill="url(#paint0_radial_773_26430)"/>
<path style="mix-blend-mode:overlay" opacity="0.7" d="M17.3573 99.2798C7.73731 99.5398 9.49731 117.12 21.2773 138.54C33.0573 159.96 50.4073 177.1 60.0373 176.85C69.6573 176.59 67.8973 159.02 56.1073 137.6C44.3173 116.18 26.9673 99.0198 17.3573 99.2798V99.2798Z" fill="url(#paint1_radial_773_26430)"/>
<path style="mix-blend-mode:overlay" opacity="0.5" d="M112.827 88.8409C98.2073 65.9009 98.6373 38.5308 113.797 27.7108C128.957 16.8808 153.097 26.7208 167.717 49.6608C182.337 72.6008 181.907 99.9709 166.757 110.781C151.597 121.601 127.457 111.771 112.827 88.8409V88.8409Z" fill="url(#paint2_radial_773_26430)"/>
<defs>
<radialGradient id="paint0_radial_773_26430" cx="0" cy="0" r="1" gradientUnits="userSpaceOnUse" gradientTransform="translate(124.478 51.1675) scale(144.29 144.29)">
<stop stop-color="white"/>
<stop offset="0.27" stop-color="#EAF0FF"/>
<stop offset="0.71" stop-color="#DAE9FF"/>
<stop offset="0.84" stop-color="#CBE0F3"/>
<stop offset="1" stop-color="#B9DDFE"/>
</radialGradient>
<radialGradient id="paint1_radial_773_26430" cx="0" cy="0" r="1" gradientUnits="userSpaceOnUse" gradientTransform="translate(1257.65 2389.59) rotate(-118.82) scale(44.3644 15.5388)">
<stop stop-color="white"/>
<stop offset="0.1" stop-color="white" stop-opacity="0.85"/>
<stop offset="0.29" stop-color="white" stop-opacity="0.59"/>
<stop offset="0.47" stop-color="white" stop-opacity="0.38"/>
<stop offset="0.63" stop-color="white" stop-opacity="0.22"/>
<stop offset="0.78" stop-color="white" stop-opacity="0.1"/>
<stop offset="0.91" stop-color="white" stop-opacity="0.03"/>
<stop offset="1" stop-color="white" stop-opacity="0"/>
</radialGradient>
<radialGradient id="paint2_radial_773_26430" cx="0" cy="0" r="1" gradientUnits="userSpaceOnUse" gradientTransform="translate(12.0453 163.012) rotate(144.47) scale(33.8052 49.1712)">
<stop stop-color="white"/>
<stop offset="0.1" stop-color="white" stop-opacity="0.85"/>
<stop offset="0.29" stop-color="white" stop-opacity="0.59"/>
<stop offset="0.47" stop-color="white" stop-opacity="0.38"/>
<stop offset="0.63" stop-color="white" stop-opacity="0.22"/>
<stop offset="0.78" stop-color="white" stop-opacity="0.1"/>
<stop offset="0.91" stop-color="white" stop-opacity="0.03"/>
<stop offset="1" stop-color="white" stop-opacity="0"/>
</radialGradient>
</defs>
</svg>
