<svg width="131" height="158" viewBox="0 0 131 158" fill="none" xmlns="http://www.w3.org/2000/svg">
<path d="M65.9775 130.572C101.876 130.572 130.978 101.47 130.978 65.5718C130.978 29.6733 101.876 0.571777 65.9775 0.571777C30.079 0.571777 0.977539 29.6733 0.977539 65.5718C0.977539 101.47 30.079 130.572 65.9775 130.572Z" fill="url(#paint0_radial_773_26434)"/>
<path style="mix-blend-mode:multiply" d="M30.5177 143.463C4.37771 124.243 -4.36225 91.7227 10.9877 70.8327C26.3477 49.9427 59.9877 48.5827 86.1377 67.7927C112.278 87.0127 121.018 119.533 105.668 140.423C90.3077 161.313 56.6677 162.673 30.5177 143.463Z" fill="url(#paint1_radial_773_26434)"/>
<path style="mix-blend-mode:overlay" opacity="0.7" d="M8.77775 65.5718C1.97775 65.7618 3.21777 78.1818 11.5478 93.3218C19.8778 108.462 32.1377 120.572 38.9377 120.392C45.7377 120.212 44.4978 107.792 36.1678 92.6518C27.8378 77.5118 15.5778 65.3918 8.77775 65.5718Z" fill="url(#paint2_radial_773_26434)"/>
<path style="mix-blend-mode:overlay" opacity="0.5" d="M76.2476 58.1923C65.9176 41.9823 66.2176 22.6323 76.9276 14.9923C87.6376 7.34229 104.698 14.2923 115.038 30.5023C125.378 46.7123 125.068 66.0523 114.358 73.7023C103.638 81.3523 86.5776 74.4023 76.2376 58.1923H76.2476Z" fill="url(#paint3_radial_773_26434)"/>
<defs>
<radialGradient id="paint0_radial_773_26434" cx="0" cy="0" r="1" gradientUnits="userSpaceOnUse" gradientTransform="translate(84.4775 31.5718) scale(101.97)">
<stop stop-color="white"/>
<stop offset="0.27" stop-color="#C7DDFF"/>
<stop offset="0.71" stop-color="#C3E1FD"/>
<stop offset="0.84" stop-color="#BFE4FF"/>
<stop offset="1" stop-color="#D5E8FF"/>
</radialGradient>
<radialGradient id="paint1_radial_773_26434" cx="0" cy="0" r="1" gradientUnits="userSpaceOnUse" gradientTransform="translate(56.5999 105.849) rotate(126.32) scale(45.064 56.33)">
<stop stop-color="#9DB9FF"/>
<stop offset="1" stop-color="#D7E0FF" stop-opacity="0"/>
</radialGradient>
<radialGradient id="paint2_radial_773_26434" cx="0" cy="0" r="1" gradientUnits="userSpaceOnUse" gradientTransform="translate(1053.47 1994.78) rotate(-118.82) scale(31.3624 10.9848)">
<stop stop-color="white"/>
<stop offset="0.1" stop-color="white" stop-opacity="0.85"/>
<stop offset="0.29" stop-color="white" stop-opacity="0.59"/>
<stop offset="0.47" stop-color="white" stop-opacity="0.38"/>
<stop offset="0.63" stop-color="white" stop-opacity="0.22"/>
<stop offset="0.78" stop-color="white" stop-opacity="0.1"/>
<stop offset="0.91" stop-color="white" stop-opacity="0.03"/>
<stop offset="1" stop-color="white" stop-opacity="0"/>
</radialGradient>
<radialGradient id="paint3_radial_773_26434" cx="0" cy="0" r="1" gradientUnits="userSpaceOnUse" gradientTransform="translate(-28.4311 135.05) rotate(144.47) scale(23.8953 34.7568)">
<stop stop-color="white"/>
<stop offset="0.1" stop-color="white" stop-opacity="0.85"/>
<stop offset="0.29" stop-color="white" stop-opacity="0.59"/>
<stop offset="0.47" stop-color="white" stop-opacity="0.38"/>
<stop offset="0.63" stop-color="white" stop-opacity="0.22"/>
<stop offset="0.78" stop-color="white" stop-opacity="0.1"/>
<stop offset="0.91" stop-color="white" stop-opacity="0.03"/>
<stop offset="1" stop-color="white" stop-opacity="0"/>
</radialGradient>
</defs>
</svg>
