<svg width="229" height="231" viewBox="0 0 229 231" fill="none" xmlns="http://www.w3.org/2000/svg">
<path d="M114.978 230.892C177.938 230.892 228.978 179.853 228.978 116.892C228.978 53.9316 177.938 2.89209 114.978 2.89209C52.0171 2.89209 0.977539 53.9316 0.977539 116.892C0.977539 179.853 52.0171 230.892 114.978 230.892Z" fill="url(#paint0_radial_773_26439)"/>
<path style="mix-blend-mode:overlay" opacity="0.7" d="M14.6578 116.902C2.73776 117.232 4.90775 139.012 19.5177 165.562C34.1177 192.112 55.6278 213.362 67.5578 213.042C79.4778 212.722 77.2977 190.942 62.6877 164.392C48.0777 137.842 26.5778 116.582 14.6578 116.892V116.902Z" fill="url(#paint1_radial_773_26439)"/>
<path style="mix-blend-mode:overlay" opacity="0.5" d="M132.987 103.952C114.867 75.5222 115.397 41.5922 134.187 28.1822C152.977 14.7622 182.897 26.9522 201.027 55.3822C219.157 83.8122 218.617 117.732 199.837 131.142C181.047 144.552 151.127 132.372 132.987 103.942V103.952Z" fill="url(#paint2_radial_773_26439)"/>
<path style="mix-blend-mode:multiply" d="M194.317 193.182C169.927 214.582 140.187 220.572 127.897 206.562C115.607 192.552 125.407 163.852 149.797 142.442C174.187 121.042 203.927 115.052 216.217 129.062C228.507 143.072 218.707 171.772 194.317 193.182Z" fill="url(#paint3_radial_773_26439)"/>
<path style="mix-blend-mode:multiply" d="M106.217 87.9319C81.8271 109.332 48.1871 110.882 31.0871 91.3819C13.9871 71.8919 19.8871 38.7419 44.2771 17.3419C68.6671 -4.05812 102.307 -5.59812 119.407 13.8919C136.507 33.3819 130.607 66.5319 106.217 87.9319Z" fill="url(#paint4_radial_773_26439)"/>
<defs>
<radialGradient id="paint0_radial_773_26439" cx="0" cy="0" r="1" gradientUnits="userSpaceOnUse" gradientTransform="translate(147.418 57.2621) scale(178.84 178.84)">
<stop stop-color="white"/>
<stop offset="0.27" stop-color="#DCEAFF"/>
<stop offset="0.71" stop-color="#C1DAF8"/>
<stop offset="0.84" stop-color="#C1DAF8"/>
<stop offset="1" stop-color="#C3DCF9"/>
</radialGradient>
<radialGradient id="paint1_radial_773_26439" cx="0" cy="0" r="1" gradientUnits="userSpaceOnUse" gradientTransform="translate(1117.35 2152.89) rotate(-118.82) scale(54.9827 19.2579)">
<stop stop-color="white"/>
<stop offset="0.1" stop-color="white" stop-opacity="0.85"/>
<stop offset="0.29" stop-color="white" stop-opacity="0.59"/>
<stop offset="0.47" stop-color="white" stop-opacity="0.38"/>
<stop offset="0.63" stop-color="white" stop-opacity="0.22"/>
<stop offset="0.78" stop-color="white" stop-opacity="0.1"/>
<stop offset="0.91" stop-color="white" stop-opacity="0.03"/>
<stop offset="1" stop-color="white" stop-opacity="0"/>
</radialGradient>
<radialGradient id="paint2_radial_773_26439" cx="0" cy="0" r="1" gradientUnits="userSpaceOnUse" gradientTransform="translate(43.5883 169.909) rotate(144.47) scale(41.899 60.944)">
<stop stop-color="white"/>
<stop offset="0.1" stop-color="white" stop-opacity="0.85"/>
<stop offset="0.29" stop-color="white" stop-opacity="0.59"/>
<stop offset="0.47" stop-color="white" stop-opacity="0.38"/>
<stop offset="0.63" stop-color="white" stop-opacity="0.22"/>
<stop offset="0.78" stop-color="white" stop-opacity="0.1"/>
<stop offset="0.91" stop-color="white" stop-opacity="0.03"/>
<stop offset="1" stop-color="white" stop-opacity="0"/>
</radialGradient>
<radialGradient id="paint3_radial_773_26439" cx="0" cy="0" r="1" gradientUnits="userSpaceOnUse" gradientTransform="translate(171.37 168.928) rotate(48.73) scale(32.1081 56.33)">
<stop stop-color="#C4D8FF"/>
<stop offset="1" stop-color="#D6DCFF" stop-opacity="0"/>
</radialGradient>
<radialGradient id="paint4_radial_773_26439" cx="0" cy="0" r="1" gradientUnits="userSpaceOnUse" gradientTransform="translate(74.982 54.2282) rotate(48.74) scale(45.072 56.34)">
<stop stop-color="#BED3F2"/>
<stop offset="1" stop-color="#DCE2FF" stop-opacity="0"/>
</radialGradient>
</defs>
</svg>
