<svg width="229" height="231" viewBox="0 0 229 231" fill="none" xmlns="http://www.w3.org/2000/svg">
<path d="M114.76 230.891C177.72 230.891 228.76 179.851 228.76 116.891C228.76 53.9302 177.72 2.89062 114.76 2.89062C51.7993 2.89062 0.759766 53.9302 0.759766 116.891C0.759766 179.851 51.7993 230.891 114.76 230.891Z" fill="url(#paint0_radial_632_23974)"/>
<path style="mix-blend-mode:overlay" opacity="0.7" d="M14.44 116.9C2.51999 117.23 4.68998 139.01 19.3 165.56C33.9 192.11 55.41 213.36 67.34 213.04C79.26 212.72 77.08 190.94 62.47 164.39C47.86 137.84 26.36 116.58 14.44 116.89V116.9Z" fill="url(#paint1_radial_632_23974)"/>
<path style="mix-blend-mode:overlay" opacity="0.5" d="M132.769 103.951C114.649 75.5208 115.179 41.5908 133.969 28.1808C152.759 14.7608 182.679 26.9508 200.809 55.3808C218.939 83.8108 218.399 117.731 199.619 131.141C180.829 144.551 150.909 132.371 132.769 103.941V103.951Z" fill="url(#paint2_radial_632_23974)"/>
<path style="mix-blend-mode:multiply" d="M194.099 193.181C169.709 214.581 139.969 220.571 127.679 206.561C115.389 192.551 125.189 163.851 149.579 142.441C173.969 121.041 203.709 115.051 215.999 129.061C228.289 143.071 218.489 171.771 194.099 193.181Z" fill="url(#paint3_radial_632_23974)"/>
<path style="mix-blend-mode:multiply" d="M105.999 87.9304C81.6093 109.33 47.9693 110.88 30.8693 91.3804C13.7693 71.8904 19.6693 38.7404 44.0593 17.3404C68.4493 -4.05959 102.089 -5.59958 119.189 13.8904C136.289 33.3804 130.389 66.5304 105.999 87.9304Z" fill="url(#paint4_radial_632_23974)"/>
<defs>
<radialGradient id="paint0_radial_632_23974" cx="0" cy="0" r="1" gradientUnits="userSpaceOnUse" gradientTransform="translate(147.2 57.2606) scale(178.84 178.84)">
<stop stop-color="white"/>
<stop offset="0.27" stop-color="#F6FBFB"/>
<stop offset="0.71" stop-color="#DFF0F0"/>
<stop offset="0.84" stop-color="#D7ECED"/>
<stop offset="1" stop-color="#E8F3F5"/>
</radialGradient>
<radialGradient id="paint1_radial_632_23974" cx="0" cy="0" r="1" gradientUnits="userSpaceOnUse" gradientTransform="translate(1117.14 2152.89) rotate(-118.82) scale(54.9827 19.2579)">
<stop stop-color="white"/>
<stop offset="0.1" stop-color="white" stop-opacity="0.85"/>
<stop offset="0.29" stop-color="white" stop-opacity="0.59"/>
<stop offset="0.47" stop-color="white" stop-opacity="0.38"/>
<stop offset="0.63" stop-color="white" stop-opacity="0.22"/>
<stop offset="0.78" stop-color="white" stop-opacity="0.1"/>
<stop offset="0.91" stop-color="white" stop-opacity="0.03"/>
<stop offset="1" stop-color="white" stop-opacity="0"/>
</radialGradient>
<radialGradient id="paint2_radial_632_23974" cx="0" cy="0" r="1" gradientUnits="userSpaceOnUse" gradientTransform="translate(43.3705 169.907) rotate(144.47) scale(41.899 60.944)">
<stop stop-color="white"/>
<stop offset="0.1" stop-color="white" stop-opacity="0.85"/>
<stop offset="0.29" stop-color="white" stop-opacity="0.59"/>
<stop offset="0.47" stop-color="white" stop-opacity="0.38"/>
<stop offset="0.63" stop-color="white" stop-opacity="0.22"/>
<stop offset="0.78" stop-color="white" stop-opacity="0.1"/>
<stop offset="0.91" stop-color="white" stop-opacity="0.03"/>
<stop offset="1" stop-color="white" stop-opacity="0"/>
</radialGradient>
<radialGradient id="paint3_radial_632_23974" cx="0" cy="0" r="1" gradientUnits="userSpaceOnUse" gradientTransform="translate(171.153 168.926) rotate(48.73) scale(32.1081 56.33)">
<stop stop-color="#C6E6E8"/>
<stop offset="1" stop-color="#EDFCFF" stop-opacity="0"/>
</radialGradient>
<radialGradient id="paint4_radial_632_23974" cx="0" cy="0" r="1" gradientUnits="userSpaceOnUse" gradientTransform="translate(74.7642 54.2267) rotate(48.74) scale(45.072 56.34)">
<stop stop-color="#C6E8E8"/>
<stop offset="1" stop-color="#EDFFFF" stop-opacity="0"/>
</radialGradient>
</defs>
</svg>
