<svg width="92" height="92" viewBox="0 0 92 92" fill="none" xmlns="http://www.w3.org/2000/svg">
<path d="M45.7578 91.3115C70.8868 91.3115 91.2578 70.9405 91.2578 45.8115C91.2578 20.6826 70.8868 0.311523 45.7578 0.311523C20.6289 0.311523 0.257812 20.6826 0.257812 45.8115C0.257812 70.9405 20.6289 91.3115 45.7578 91.3115Z" fill="url(#paint0_radial_773_26445)"/>
<path style="mix-blend-mode:overlay" opacity="0.7" d="M5.71744 45.8111C0.957441 45.9411 1.82744 54.6411 7.65744 65.2311C13.4874 75.8211 22.0674 84.3111 26.8274 84.1811C31.5874 84.0511 30.7174 75.3611 24.8874 64.7611C19.0574 54.1611 10.4774 45.6811 5.71744 45.8011V45.8111Z" fill="url(#paint1_radial_773_26445)"/>
<path style="mix-blend-mode:overlay" opacity="0.5" d="M52.9479 40.6408C45.7179 29.2908 45.9279 15.7508 53.4279 10.4008C60.9279 5.04076 72.8679 9.91077 80.1079 21.2608C87.3479 32.6108 87.1279 46.1508 79.6379 51.5008C72.1379 56.8508 60.1979 51.9908 52.9579 40.6408H52.9479Z" fill="url(#paint2_radial_773_26445)"/>
<defs>
<radialGradient id="paint0_radial_773_26445" cx="0" cy="0" r="1" gradientUnits="userSpaceOnUse" gradientTransform="translate(58.7078 22.0115) scale(71.38)">
<stop stop-color="white"/>
<stop offset="0.27" stop-color="#EEF6FE"/>
<stop offset="0.71" stop-color="#C8E3FC"/>
<stop offset="0.84" stop-color="#C6E8F2"/>
<stop offset="1" stop-color="#AEDFFB"/>
</radialGradient>
<radialGradient id="paint1_radial_773_26445" cx="0" cy="0" r="1" gradientUnits="userSpaceOnUse" gradientTransform="translate(1070.76 2012.73) rotate(-118.82) scale(21.9458 7.6866)">
<stop stop-color="white"/>
<stop offset="0.1" stop-color="white" stop-opacity="0.85"/>
<stop offset="0.29" stop-color="white" stop-opacity="0.59"/>
<stop offset="0.47" stop-color="white" stop-opacity="0.38"/>
<stop offset="0.63" stop-color="white" stop-opacity="0.22"/>
<stop offset="0.78" stop-color="white" stop-opacity="0.1"/>
<stop offset="0.91" stop-color="white" stop-opacity="0.03"/>
<stop offset="1" stop-color="white" stop-opacity="0"/>
</radialGradient>
<radialGradient id="paint2_radial_773_26445" cx="0" cy="0" r="1" gradientUnits="userSpaceOnUse" gradientTransform="translate(-52.0012 117.616) rotate(144.47) scale(16.7167 24.3152)">
<stop stop-color="white"/>
<stop offset="0.1" stop-color="white" stop-opacity="0.85"/>
<stop offset="0.29" stop-color="white" stop-opacity="0.59"/>
<stop offset="0.47" stop-color="white" stop-opacity="0.38"/>
<stop offset="0.63" stop-color="white" stop-opacity="0.22"/>
<stop offset="0.78" stop-color="white" stop-opacity="0.1"/>
<stop offset="0.91" stop-color="white" stop-opacity="0.03"/>
<stop offset="1" stop-color="white" stop-opacity="0"/>
</radialGradient>
</defs>
</svg>
