<svg width="92" height="92" viewBox="0 0 92 92" fill="none" xmlns="http://www.w3.org/2000/svg">
<path d="M45.54 91.3105C70.669 91.3105 91.04 70.9395 91.04 45.8105C91.04 20.6816 70.669 0.310547 45.54 0.310547C20.4111 0.310547 0.0400391 20.6816 0.0400391 45.8105C0.0400391 70.9395 20.4111 91.3105 45.54 91.3105Z" fill="url(#paint0_radial_632_23980)"/>
<path style="mix-blend-mode:overlay" opacity="0.7" d="M5.49967 45.8101C0.739667 45.9401 1.60967 54.6401 7.43967 65.2301C13.2697 75.8201 21.8497 84.3101 26.6097 84.1801C31.3697 84.0501 30.4997 75.3601 24.6697 64.7601C18.8397 54.1601 10.2597 45.6801 5.49967 45.8001V45.8101Z" fill="url(#paint1_radial_632_23980)"/>
<path style="mix-blend-mode:overlay" opacity="0.5" d="M52.7301 40.6398C45.5001 29.2898 45.7102 15.7498 53.2102 10.3998C60.7102 5.03978 72.6502 9.9098 79.8902 21.2598C87.1302 32.6098 86.9101 46.1498 79.4201 51.4998C71.9201 56.8498 59.9801 51.9898 52.7401 40.6398H52.7301Z" fill="url(#paint2_radial_632_23980)"/>
<defs>
<radialGradient id="paint0_radial_632_23980" cx="0" cy="0" r="1" gradientUnits="userSpaceOnUse" gradientTransform="translate(58.49 22.0105) scale(71.38)">
<stop stop-color="#FFF0F0"/>
<stop offset="0.27" stop-color="#FFE0E0"/>
<stop offset="0.71" stop-color="#FECCCC"/>
<stop offset="0.84" stop-color="#FDD2D2"/>
<stop offset="1" stop-color="#F2C0C0"/>
</radialGradient>
<radialGradient id="paint1_radial_632_23980" cx="0" cy="0" r="1" gradientUnits="userSpaceOnUse" gradientTransform="translate(1070.54 2012.72) rotate(-118.82) scale(21.9458 7.6866)">
<stop stop-color="white"/>
<stop offset="0.1" stop-color="white" stop-opacity="0.85"/>
<stop offset="0.29" stop-color="white" stop-opacity="0.59"/>
<stop offset="0.47" stop-color="white" stop-opacity="0.38"/>
<stop offset="0.63" stop-color="white" stop-opacity="0.22"/>
<stop offset="0.78" stop-color="white" stop-opacity="0.1"/>
<stop offset="0.91" stop-color="white" stop-opacity="0.03"/>
<stop offset="1" stop-color="white" stop-opacity="0"/>
</radialGradient>
<radialGradient id="paint2_radial_632_23980" cx="0" cy="0" r="1" gradientUnits="userSpaceOnUse" gradientTransform="translate(-52.2189 117.615) rotate(144.47) scale(16.7167 24.3152)">
<stop stop-color="white"/>
<stop offset="0.1" stop-color="white" stop-opacity="0.85"/>
<stop offset="0.29" stop-color="white" stop-opacity="0.59"/>
<stop offset="0.47" stop-color="white" stop-opacity="0.38"/>
<stop offset="0.63" stop-color="white" stop-opacity="0.22"/>
<stop offset="0.78" stop-color="white" stop-opacity="0.1"/>
<stop offset="0.91" stop-color="white" stop-opacity="0.03"/>
<stop offset="1" stop-color="white" stop-opacity="0"/>
</radialGradient>
</defs>
</svg>
