<svg width="104" height="104" viewBox="0 0 104 104" fill="none" xmlns="http://www.w3.org/2000/svg">
<path d="M66.3079 5.49033C88.7579 16.7903 97.7879 44.1403 86.4979 66.5903C75.1979 89.0403 47.8479 98.0703 25.3979 86.7703C2.94789 75.4703 -6.08211 48.1204 5.20789 25.6704C16.5079 3.22035 43.8579 -5.80965 66.3079 5.48035V5.49033Z" fill="url(#paint0_radial_773_26449)"/>
<path style="mix-blend-mode:multiply" d="M68.0475 101.881C43.1875 108.921 18.0075 96.9013 11.8075 75.0113C5.60749 53.1313 20.7375 29.6813 45.5975 22.6413C70.4575 15.6013 95.6375 27.6313 101.837 49.5113C108.037 71.3913 92.9075 94.8413 68.0475 101.881Z" fill="url(#paint1_radial_773_26449)"/>
<path style="mix-blend-mode:overlay" opacity="0.7" d="M27.8478 81.9003C25.8278 86.2103 33.9878 89.3403 46.0678 88.9003C58.1478 88.4603 69.5878 84.6003 71.6178 80.2903C73.6378 75.9803 65.4878 72.8503 53.3978 73.2903C41.3078 73.7303 29.8678 77.5903 27.8478 81.8903V81.9003Z" fill="url(#paint2_radial_773_26449)"/>
<path style="mix-blend-mode:overlay" opacity="0.5" d="M44.4683 37.3905C31.0783 38.7505 19.0783 32.4705 17.6683 23.3705C16.2583 14.2605 25.9683 5.78047 39.3583 4.42047C52.7483 3.06047 64.7483 9.34046 66.1583 18.4405C67.5683 27.5505 57.8583 36.0305 44.4683 37.3905Z" fill="url(#paint3_radial_773_26449)"/>
<defs>
<radialGradient id="paint0_radial_773_26449" cx="0" cy="0" r="1" gradientUnits="userSpaceOnUse" gradientTransform="translate(30.4531 23.8632) rotate(-63.28) scale(71.38 71.38)">
<stop stop-color="white"/>
<stop offset="0.27" stop-color="#EFF4FF"/>
<stop offset="0.71" stop-color="#D1E2FB"/>
<stop offset="0.84" stop-color="#CDEAFF"/>
<stop offset="1" stop-color="#B5E0FF"/>
</radialGradient>
<radialGradient id="paint1_radial_773_26449" cx="0" cy="0" r="1" gradientUnits="userSpaceOnUse" gradientTransform="translate(51.8166 64.5699) rotate(74.19) scale(39.431 45.064)">
<stop stop-color="#BFD8EE"/>
<stop offset="0.1" stop-color="#BCD5F3" stop-opacity="0.97"/>
<stop offset="0.23" stop-color="#BECFF1" stop-opacity="0.9"/>
<stop offset="0.38" stop-color="#BDDEFC" stop-opacity="0.78"/>
<stop offset="0.55" stop-color="#C5D9F8" stop-opacity="0.61"/>
<stop offset="0.73" stop-color="#D9E7FC" stop-opacity="0.4"/>
<stop offset="0.796875" stop-color="#CFE5FF" stop-opacity="0.303403"/>
<stop offset="0.91" stop-color="#CCEAFF" stop-opacity="0.14"/>
<stop offset="1" stop-color="#C5DCFF" stop-opacity="0"/>
</radialGradient>
<radialGradient id="paint2_radial_773_26449" cx="0" cy="0" r="1" gradientUnits="userSpaceOnUse" gradientTransform="translate(2306.91 13.4342) rotate(177.89) scale(21.9458 7.68659)">
<stop stop-color="white"/>
<stop offset="0.1" stop-color="white" stop-opacity="0.85"/>
<stop offset="0.29" stop-color="white" stop-opacity="0.59"/>
<stop offset="0.47" stop-color="white" stop-opacity="0.38"/>
<stop offset="0.63" stop-color="white" stop-opacity="0.22"/>
<stop offset="0.78" stop-color="white" stop-opacity="0.1"/>
<stop offset="0.91" stop-color="white" stop-opacity="0.03"/>
<stop offset="1" stop-color="white" stop-opacity="0"/>
</radialGradient>
<radialGradient id="paint3_radial_773_26449" cx="0" cy="0" r="1" gradientUnits="userSpaceOnUse" gradientTransform="translate(63.8133 152.701) rotate(81.19) scale(16.7167 24.3152)">
<stop stop-color="white"/>
<stop offset="0.1" stop-color="white" stop-opacity="0.85"/>
<stop offset="0.29" stop-color="white" stop-opacity="0.59"/>
<stop offset="0.47" stop-color="white" stop-opacity="0.38"/>
<stop offset="0.63" stop-color="white" stop-opacity="0.22"/>
<stop offset="0.78" stop-color="white" stop-opacity="0.1"/>
<stop offset="0.91" stop-color="white" stop-opacity="0.03"/>
<stop offset="1" stop-color="white" stop-opacity="0"/>
</radialGradient>
</defs>
</svg>
