<svg width="129" height="132" viewBox="0 0 129 132" fill="none" xmlns="http://www.w3.org/2000/svg">
<path d="M128.258 0.000976562L17.5977 36.101C26.3877 33.231 38.0077 34.221 50.7877 39.781C78.5977 51.871 101.388 81.001 101.698 104.841C101.738 107.731 101.438 110.411 100.838 112.871C109.978 75.251 119.118 37.631 128.258 0.000976562Z" fill="url(#paint0_linear_773_26463)"/>
<path d="M101.687 104.841C101.997 128.681 79.7073 138.2 51.8973 126.12C24.0873 114.03 1.29734 84.9005 0.997335 61.0605C0.687335 37.2205 22.9773 27.7005 50.7873 39.7805C78.5973 51.8705 101.387 81.0005 101.697 104.841H101.687Z" fill="url(#paint1_linear_773_26463)"/>
<g style="mix-blend-mode:overlay">
<path d="M101.687 104.84C101.727 107.73 101.427 110.41 100.827 112.87C101.377 110.61 101.927 108.35 102.477 106.1C102.507 105.46 102.517 104.8 102.507 104.14C102.197 80.3001 79.4069 51.1801 51.6069 39.0801C41.0269 34.4801 31.2569 33.0201 23.2169 34.2701L17.5869 36.1001C26.3769 33.2301 37.9969 34.2201 50.7769 39.7801C78.5869 51.8701 101.377 81.0001 101.687 104.84V104.84Z" fill="#9DA8B8"/>
</g>
<defs>
<linearGradient id="paint0_linear_773_26463" x1="66.799" y1="10.9828" x2="132.219" y2="86.5979" gradientUnits="userSpaceOnUse">
<stop stop-color="white"/>
<stop offset="0.24" stop-color="#E3EDFF"/>
<stop offset="0.69" stop-color="#D5EBFF"/>
<stop offset="1" stop-color="#BEC9FF"/>
</linearGradient>
<linearGradient id="paint1_linear_773_26463" x1="-44.3694" y1="9.47487" x2="93.2961" y2="115.186" gradientUnits="userSpaceOnUse">
<stop stop-color="white"/>
<stop offset="0.39" stop-color="#C6E0FF"/>
<stop offset="0.75" stop-color="#CBE0FF"/>
<stop offset="1" stop-color="#AED3FF"/>
</linearGradient>
</defs>
</svg>
