<svg width="188" height="33" viewBox="0 0 188 33" fill="none" xmlns="http://www.w3.org/2000/svg">
<path fill-rule="evenodd" clip-rule="evenodd" d="M187.335 29.4426C187.855 29.2568 188.127 28.6847 187.941 28.1645L184.915 19.6886C184.729 19.1685 184.157 18.8974 183.637 19.0831C183.116 19.2688 182.845 19.841 183.031 20.3611L185.481 27.2233L185.068 28.1286L178.187 30.5853C177.667 30.771 177.396 31.3432 177.581 31.8633C177.767 32.3835 178.339 32.6546 178.859 32.4688L187.335 29.4426ZM0.542969 27.6109L1.45527 29.3907L1.48177 29.3771L1.56378 29.3354C1.63674 29.2983 1.74606 29.243 1.89042 29.1704C2.17914 29.0251 2.608 28.8108 3.16642 28.5356L2.2823 26.7416C1.71877 27.0193 1.285 27.2361 0.991587 27.3837C0.844879 27.4575 0.733256 27.514 0.658041 27.5522L0.572688 27.5957L0.542969 27.6109ZM182.118 25.1901C181.066 24.7255 179.874 24.2047 178.554 23.6376L177.765 25.4751C179.078 26.0394 180.264 26.5575 181.31 27.0196L182.118 25.1901ZM9.43209 23.341C8.10854 23.9511 6.91152 24.5127 5.85578 25.0142L6.71399 26.8207C7.76314 26.3223 8.95319 25.764 10.2694 25.1572L9.43209 23.341ZM174.953 22.1097C173.82 21.6349 172.623 21.1392 171.368 20.6267L170.612 22.4781C171.861 22.9883 173.052 23.4818 174.181 23.9544L174.953 22.1097ZM16.622 20.1183C15.3534 20.6712 14.1431 21.2068 12.9973 21.7204L13.8153 23.5454C14.955 23.0346 16.159 22.5018 17.421 21.9518L16.622 20.1183ZM167.753 19.1683C166.58 18.7013 165.368 18.2245 164.121 17.7407L163.398 19.6053C164.639 20.0869 165.846 20.5615 167.013 21.0264L167.753 19.1683ZM23.8608 17.0523C22.6133 17.5654 21.4005 18.0722 20.2263 18.5696L21.0065 20.4111C22.1744 19.9164 23.3808 19.4123 24.6216 18.9019L23.8608 17.0523ZM160.479 16.3466C159.287 15.8968 158.07 15.4433 156.829 14.988L156.14 16.8656C157.375 17.3187 158.587 17.7701 159.772 18.2177L160.479 16.3466ZM31.1885 14.1307C29.9404 14.6123 28.7153 15.0934 27.5162 15.5716L28.257 17.4293C29.4495 16.9538 30.6677 16.4755 31.9086 15.9966L31.1885 14.1307ZM153.167 13.6649C151.96 13.2351 150.733 12.8055 149.491 12.3777L148.84 14.2687C150.075 14.6942 151.295 15.1216 152.497 15.5492L153.167 13.6649ZM38.5803 11.3779C37.3296 11.8264 36.0941 12.2785 34.8766 12.732L35.5748 14.6062C36.7849 14.1554 38.0127 13.7062 39.2555 13.2605L38.5803 11.3779ZM145.801 11.1285C144.579 10.7221 143.344 10.3189 142.099 9.92038L141.49 11.8252C142.727 12.2213 143.955 12.6222 145.17 13.0263L145.801 11.1285ZM46.0364 8.81438C44.7804 9.22701 43.5341 9.64651 42.2998 10.0711L42.9504 11.9623C44.1763 11.5406 45.4138 11.1241 46.6606 10.7145L46.0364 8.81438ZM138.382 8.75518C137.146 8.37571 135.901 8.00211 134.65 7.63579L134.088 9.55519C135.33 9.91901 136.567 10.2901 137.796 10.6672L138.382 8.75518ZM53.5671 6.46557C52.3029 6.83795 51.0439 7.22035 49.792 7.61106L50.3879 9.52023C51.6299 9.13257 52.8788 8.7533 54.1322 8.38407L53.5671 6.46557ZM130.901 6.56574C129.649 6.21792 128.393 5.87863 127.135 5.54922L126.629 7.48399C127.877 7.81078 129.123 8.14747 130.365 8.49273L130.901 6.56574ZM61.1781 4.36959C59.9046 4.69464 58.632 5.03303 57.3622 5.38307L57.8938 7.31114C59.1518 6.96433 60.4121 6.62922 61.6727 6.30746L61.1781 4.36959ZM123.353 4.5911C122.086 4.28129 120.818 3.98283 119.553 3.69712L119.112 5.64803C120.366 5.93102 121.622 6.22675 122.878 6.53386L123.353 4.5911ZM68.8752 2.57968C67.5915 2.8473 66.3041 3.13209 65.0155 3.43229L65.4693 5.38013C66.7435 5.08329 68.0156 4.80188 69.2834 4.53758L68.8752 2.57968ZM115.735 2.87399C114.452 2.61077 113.173 2.36218 111.899 2.12971L111.54 4.0972C112.799 4.32693 114.064 4.57273 115.333 4.83318L115.735 2.87399ZM76.664 1.17183C75.3696 1.3673 74.0668 1.58467 72.7579 1.82203L73.1148 3.78993C74.4053 3.55589 75.6888 3.34178 76.9626 3.14941L76.664 1.17183ZM108.045 1.47382C106.745 1.26925 105.453 1.08342 104.171 0.917946L103.915 2.90148C105.177 3.06446 106.451 3.24765 107.734 3.44951L108.045 1.47382ZM84.5447 0.25898C83.2411 0.360012 81.9231 0.48925 80.5934 0.644455L80.8252 2.63097C82.1308 2.47858 83.4231 2.35191 84.6993 2.253L84.5447 0.25898ZM100.279 0.47636C98.9614 0.348373 97.6572 0.24456 96.3695 0.166843L96.249 2.16321C97.5109 2.23937 98.7908 2.34121 100.086 2.46699L100.279 0.47636ZM90.4926 0.000801086C89.8383 0.0050869 89.1789 0.0180264 88.5149 0.0392876L88.5789 2.03826C89.2265 2.01752 89.8689 2.00493 90.5057 2.00076C91.1342 1.99664 91.7689 2.00031 92.4093 2.01152L92.4443 0.0118332C91.7884 0.000349045 91.1377 -0.00342369 90.4926 0.000801086Z" fill="#DFE2EA"/>
</svg>
