<svg width="152" height="150" viewBox="0 0 152 150" fill="none" xmlns="http://www.w3.org/2000/svg">
<g opacity="0.8">
<path d="M109.729 3.92472L128.332 28.4587L117.9 49.2006L99.2971 24.6666L109.729 3.92472Z" fill="url(#paint0_linear_594_23842)"/>
<path d="M62.956 111.861L44.3507 87.32C40.5678 82.3264 40.6213 74.4374 45.4112 64.9118C54.826 46.1973 78.9897 28.1431 99.2903 24.6685L117.894 49.2025C97.588 52.686 73.4224 70.7332 64.0076 89.4477C59.2177 98.9733 59.1661 106.869 62.9471 111.856L62.956 111.861Z" fill="url(#paint1_linear_594_23842)"/>
<path d="M65.1669 92.542L83.7702 117.076L73.3438 137.809L54.7404 113.275L65.1669 92.542Z" fill="url(#paint2_linear_594_23842)"/>
<path d="M39.8053 129.411L21.2001 104.869C27.0782 112.617 38.6857 116.024 54.7408 113.274L73.3442 137.808C57.2891 140.558 45.6746 137.153 39.8035 129.404L39.8053 129.411Z" fill="url(#paint3_linear_594_23842)"/>
<g style="mix-blend-mode:overlay">
<path d="M23.3869 69.3219C38.5487 39.1679 77.493 10.0811 110.204 4.47354L99.7725 25.2155C79.4668 28.699 55.3012 46.7461 45.8863 65.4607C36.4766 84.1663 45.3342 96.5673 65.6399 93.0839L55.2135 113.817C22.5024 119.424 8.22832 99.4601 23.385 69.3149L23.3869 69.3219Z" fill="#F686F2"/>
</g>
<path d="M22.9111 68.7716C38.0729 38.6176 77.0173 9.53074 109.728 3.92321L99.2967 24.6651C78.991 28.1486 54.8254 46.1957 45.4175 64.9084C36.0078 83.6141 44.8654 96.0151 65.1712 92.5316L54.7447 113.265C22.0336 118.872 7.75959 98.9079 22.9163 68.7627L22.9111 68.7716Z" fill="url(#paint4_linear_594_23842)"/>
</g>
<defs>
<linearGradient id="paint0_linear_594_23842" x1="22.7544" y1="-2.28865" x2="110.978" y2="25.6108" gradientUnits="userSpaceOnUse">
<stop stop-color="#FFFAFF"/>
<stop offset="0.39" stop-color="#F2C7F5"/>
<stop offset="0.75" stop-color="#ECB1ED"/>
<stop offset="1" stop-color="#E9B7EA"/>
</linearGradient>
<linearGradient id="paint1_linear_594_23842" x1="159.997" y1="14.2576" x2="63.762" y2="76.4616" gradientUnits="userSpaceOnUse">
<stop stop-color="#FCE8FF"/>
<stop offset="0.24" stop-color="#FDE0FF"/>
<stop offset="0.69" stop-color="#FEC7FF"/>
<stop offset="1" stop-color="#F2BCFB"/>
</linearGradient>
<linearGradient id="paint2_linear_594_23842" x1="-17.9816" y1="134.443" x2="84.372" y2="111.764" gradientUnits="userSpaceOnUse">
<stop stop-color="white"/>
<stop offset="0.39" stop-color="#F3C6F4"/>
<stop offset="0.75" stop-color="#EDAEEE"/>
<stop offset="1" stop-color="#DD98E8"/>
</linearGradient>
<linearGradient id="paint3_linear_594_23842" x1="23.7746" y1="113.355" x2="96.096" y2="142.642" gradientUnits="userSpaceOnUse">
<stop stop-color="white"/>
<stop offset="0.24" stop-color="#F8D2FC"/>
<stop offset="0.69" stop-color="#F9D3FF"/>
<stop offset="1" stop-color="#F2BAF7"/>
</linearGradient>
<linearGradient id="paint4_linear_594_23842" x1="38.3398" y1="114.552" x2="81.03" y2="-6.26971" gradientUnits="userSpaceOnUse">
<stop stop-color="#FFE7FF"/>
<stop offset="0.24" stop-color="#FEE0FF"/>
<stop offset="0.69" stop-color="#FEC9FC"/>
<stop offset="1" stop-color="#FEBFFF"/>
</linearGradient>
</defs>
</svg>
