<svg width="202" height="205" viewBox="0 0 202 205" fill="none" xmlns="http://www.w3.org/2000/svg">
<path d="M66.7027 63.4613C39.7461 87.1687 37.1121 128.24 60.8195 155.197C84.5269 182.153 125.598 184.787 152.555 161.08C179.512 137.372 182.146 96.3011 158.438 69.3445C134.731 42.3878 93.6594 39.7538 66.7027 63.4613Z" fill="url(#paint0_radial_594_23795)"/>
<path style="mix-blend-mode:multiply" d="M84.8172 30.3635C117.139 27.5332 145.178 46.181 147.447 72.0047C149.709 97.835 125.347 121.072 93.024 123.917C60.7023 126.747 32.663 108.099 30.3937 82.2755C28.132 56.4452 52.4945 33.208 84.8172 30.3635Z" fill="url(#paint1_radial_594_23795)"/>
<path style="mix-blend-mode:overlay" opacity="0.7" d="M152.581 74.4955C157.561 69.8621 148.428 61.3547 132.174 55.487C115.921 49.6194 98.7172 48.6223 93.7299 53.2482C88.7425 57.8741 97.8758 66.3816 114.129 72.2492C130.383 78.1169 147.593 79.1214 152.581 74.4955Z" fill="url(#paint2_radial_594_23795)"/>
<path style="mix-blend-mode:overlay" opacity="0.5" d="M106.79 124.594C125.252 129.945 137.806 144.673 134.809 157.483C131.819 170.3 114.418 176.348 95.9488 171.004C77.4792 165.66 64.9398 150.933 67.93 138.116C70.9277 125.292 88.3281 119.244 106.798 124.588L106.79 124.594Z" fill="url(#paint3_radial_594_23795)"/>
<defs>
<radialGradient id="paint0_radial_594_23795" cx="0" cy="0" r="1" gradientUnits="userSpaceOnUse" gradientTransform="translate(118.191 150.019) rotate(138.669) scale(101.97)">
<stop stop-color="white"/>
<stop offset="0.27" stop-color="#FBF6FA"/>
<stop offset="0.71" stop-color="#F0DFEF"/>
<stop offset="0.84" stop-color="#EDD7EB"/>
<stop offset="1" stop-color="#F4E8F5"/>
</radialGradient>
<radialGradient id="paint1_radial_594_23795" cx="0" cy="0" r="1" gradientUnits="userSpaceOnUse" gradientTransform="translate(90.0718 75.8327) rotate(-95.0105) scale(45.064 56.33)">
<stop stop-color="#E8C6E7"/>
<stop offset="1" stop-color="#FFEDFF" stop-opacity="0"/>
</radialGradient>
<radialGradient id="paint2_radial_594_23795" cx="0" cy="0" r="1" gradientUnits="userSpaceOnUse" gradientTransform="translate(-1905.94 -684.249) rotate(19.8495) scale(31.3624 10.9848)">
<stop stop-color="white"/>
<stop offset="0.1" stop-color="white" stop-opacity="0.85"/>
<stop offset="0.29" stop-color="white" stop-opacity="0.59"/>
<stop offset="0.47" stop-color="white" stop-opacity="0.38"/>
<stop offset="0.63" stop-color="white" stop-opacity="0.22"/>
<stop offset="0.78" stop-color="white" stop-opacity="0.1"/>
<stop offset="0.91" stop-color="white" stop-opacity="0.03"/>
<stop offset="1" stop-color="white" stop-opacity="0"/>
</radialGradient>
<radialGradient id="paint3_radial_594_23795" cx="0" cy="0" r="1" gradientUnits="userSpaceOnUse" gradientTransform="translate(134.638 -2.2492) rotate(-76.8605) scale(23.8953 34.7568)">
<stop stop-color="white"/>
<stop offset="0.1" stop-color="white" stop-opacity="0.85"/>
<stop offset="0.29" stop-color="white" stop-opacity="0.59"/>
<stop offset="0.47" stop-color="white" stop-opacity="0.38"/>
<stop offset="0.63" stop-color="white" stop-opacity="0.22"/>
<stop offset="0.78" stop-color="white" stop-opacity="0.1"/>
<stop offset="0.91" stop-color="white" stop-opacity="0.03"/>
<stop offset="1" stop-color="white" stop-opacity="0"/>
</radialGradient>
</defs>
</svg>
