<svg width="279" height="278" viewBox="0 0 279 278" fill="none" xmlns="http://www.w3.org/2000/svg">
<path d="M66.4326 194.552C97.171 234.988 154.87 242.851 195.307 212.112C235.744 181.374 243.606 123.675 212.868 83.238C182.129 42.8011 124.43 34.9389 83.9934 65.6773C43.5565 96.4157 35.6942 154.115 66.4326 194.552Z" fill="url(#paint0_radial_594_23791)"/>
<path style="mix-blend-mode:overlay" opacity="0.7" d="M200.426 85.4405C207.478 78.8922 194.546 66.8535 171.555 58.5484C148.563 50.2434 124.216 48.8308 117.15 55.3782C110.097 61.9265 123.022 73.9577 146.021 82.2561C169.02 90.5545 193.381 91.9822 200.426 85.4405V85.4405Z" fill="url(#paint1_radial_594_23791)"/>
<path style="mix-blend-mode:overlay" opacity="0.5" d="M135.629 156.328C161.757 163.899 179.51 184.735 175.271 202.872C171.04 221.016 146.414 229.569 120.286 221.998C94.1584 214.427 76.4061 193.591 80.6435 175.468C84.8818 157.332 109.501 148.771 135.629 156.328V156.328Z" fill="url(#paint2_radial_594_23791)"/>
<defs>
<radialGradient id="paint0_radial_594_23791" cx="0" cy="0" r="1" gradientUnits="userSpaceOnUse" gradientTransform="translate(151.76 192.312) rotate(138.669) scale(144.29 144.29)">
<stop stop-color="white"/>
<stop offset="0.27" stop-color="#FBFBF6"/>
<stop offset="0.71" stop-color="#F0EFDF"/>
<stop offset="0.84" stop-color="#EDEDD7"/>
<stop offset="1" stop-color="#F5F4E8"/>
</radialGradient>
<radialGradient id="paint1_radial_594_23791" cx="0" cy="0" r="1" gradientUnits="userSpaceOnUse" gradientTransform="translate(-2243.45 -815.287) rotate(19.8495) scale(44.3644 15.5388)">
<stop stop-color="white"/>
<stop offset="0.1" stop-color="white" stop-opacity="0.85"/>
<stop offset="0.29" stop-color="white" stop-opacity="0.59"/>
<stop offset="0.47" stop-color="white" stop-opacity="0.38"/>
<stop offset="0.63" stop-color="white" stop-opacity="0.22"/>
<stop offset="0.78" stop-color="white" stop-opacity="0.1"/>
<stop offset="0.91" stop-color="white" stop-opacity="0.03"/>
<stop offset="1" stop-color="white" stop-opacity="0"/>
</radialGradient>
<radialGradient id="paint2_radial_594_23791" cx="0" cy="0" r="1" gradientUnits="userSpaceOnUse" gradientTransform="translate(162.325 34.0753) rotate(-76.8605) scale(33.8052 49.1712)">
<stop stop-color="white"/>
<stop offset="0.1" stop-color="white" stop-opacity="0.85"/>
<stop offset="0.29" stop-color="white" stop-opacity="0.59"/>
<stop offset="0.47" stop-color="white" stop-opacity="0.38"/>
<stop offset="0.63" stop-color="white" stop-opacity="0.22"/>
<stop offset="0.78" stop-color="white" stop-opacity="0.1"/>
<stop offset="0.91" stop-color="white" stop-opacity="0.03"/>
<stop offset="1" stop-color="white" stop-opacity="0"/>
</radialGradient>
</defs>
</svg>
