<svg width="166" height="162" viewBox="0 0 166 162" fill="none" xmlns="http://www.w3.org/2000/svg">
<path d="M112.764 11.3981L132.064 35.9474L121.853 57.1658L102.554 32.6165L112.764 11.3981Z" fill="url(#paint0_linear_594_23835)"/>
<path d="M67.2642 121.686L47.9644 97.1365C44.0403 92.1445 43.9514 84.1392 48.6436 74.3927C57.8501 55.2427 82.0303 36.5074 102.558 32.6231L121.858 57.1724C101.329 61.0708 77.149 79.8062 67.9358 98.9487C63.2436 108.695 63.3325 116.7 67.2566 121.692L67.2642 121.686Z" fill="url(#paint1_linear_594_23835)"/>
<path d="M69.1619 102.053L88.4616 126.603L78.2584 147.814L58.9587 123.265L69.1619 102.053Z" fill="url(#paint2_linear_594_23835)"/>
<path d="M44.0965 139.891L24.7968 115.342C30.8963 123.095 42.7265 126.341 58.9585 123.265L78.2582 147.814C62.0263 150.89 50.196 147.644 44.0965 139.891Z" fill="url(#paint3_linear_594_23835)"/>
<g style="mix-blend-mode:overlay">
<path d="M26.3817 79.2577C41.2134 48.4088 80.1791 18.2148 113.26 11.947L103.056 33.1729C82.5268 37.0713 58.3467 55.8066 49.1335 74.9492C39.9279 94.0851 49.1294 106.501 69.6509 102.609L59.4477 123.821C26.3811 130.09 11.5434 110.099 26.3742 79.2643L26.3817 79.2577Z" fill="white"/>
</g>
<path d="M25.8856 78.7084C40.7173 47.8594 79.6896 17.673 112.764 11.3977L102.56 32.6236C82.0382 36.5154 57.8506 55.2573 48.6449 74.3933C39.4393 93.5292 48.6408 105.945 69.1623 102.053L58.9591 123.265C25.8925 129.534 11.0548 109.543 25.8856 78.7084V78.7084Z" fill="url(#paint4_linear_594_23835)"/>
<defs>
<linearGradient id="paint0_linear_594_23835" x1="24.5067" y1="6.68085" x2="114.464" y2="33.4028" gradientUnits="userSpaceOnUse">
<stop stop-color="white"/>
<stop offset="0.39" stop-color="#E2E6F2"/>
<stop offset="0.75" stop-color="#CFD5E9"/>
<stop offset="1" stop-color="#C8CFE6"/>
</linearGradient>
<linearGradient id="paint1_linear_594_23835" x1="163.97" y1="21.0025" x2="67.4916" y2="85.8111" gradientUnits="userSpaceOnUse">
<stop stop-color="white"/>
<stop offset="0.24" stop-color="#F1F3F9"/>
<stop offset="0.69" stop-color="#DEE2F0"/>
<stop offset="1" stop-color="#D7DCED"/>
</linearGradient>
<linearGradient id="paint2_linear_594_23835" x1="-14.3625" y1="146.064" x2="89.0186" y2="121.235" gradientUnits="userSpaceOnUse">
<stop stop-color="white"/>
<stop offset="0.39" stop-color="#E2E6F2"/>
<stop offset="0.75" stop-color="#CFD5E9"/>
<stop offset="1" stop-color="#C8CFE6"/>
</linearGradient>
<linearGradient id="paint3_linear_594_23835" x1="27.6094" y1="123.929" x2="101.464" y2="152.342" gradientUnits="userSpaceOnUse">
<stop stop-color="white"/>
<stop offset="0.24" stop-color="#F1F3F9"/>
<stop offset="0.69" stop-color="#DEE2F0"/>
<stop offset="1" stop-color="#D7DCED"/>
</linearGradient>
<linearGradient id="paint4_linear_594_23835" x1="42.3966" y1="124.888" x2="83.5249" y2="1.60736" gradientUnits="userSpaceOnUse">
<stop stop-color="white"/>
<stop offset="0.24" stop-color="#F1F3F9"/>
<stop offset="0.69" stop-color="#DEE2F0"/>
<stop offset="1" stop-color="#D7DCED"/>
</linearGradient>
</defs>
</svg>
