<svg width="196" height="196" viewBox="0 0 196 196" fill="none" xmlns="http://www.w3.org/2000/svg">
<path style="mix-blend-mode:multiply" d="M29.0627 87.3577C33.2449 55.181 57.482 31.8011 83.2004 35.1511C108.912 38.4935 126.374 67.2826 122.192 99.4593C118.01 131.636 93.7662 155.008 68.0543 151.666C42.3425 148.324 24.8806 119.534 29.0627 87.3577Z" fill="url(#paint0_radial_594_23822)"/>
<path d="M106.793 44.8069L160.668 67.4073L175.779 104.789L121.911 82.1822L106.793 44.8069Z" fill="url(#paint1_linear_594_23822)"/>
<path d="M121.91 82.1814L175.778 104.788L140.101 154.742L86.2258 132.142L121.91 82.1814Z" fill="url(#paint2_linear_594_23822)"/>
<path d="M71.1065 94.7667L106.791 44.8061L121.91 82.1814L86.2251 132.142L71.1065 94.7667Z" fill="url(#paint3_linear_594_23822)"/>
<defs>
<radialGradient id="paint0_radial_594_23822" cx="0" cy="0" r="1" gradientUnits="userSpaceOnUse" gradientTransform="translate(74.7756 92.0385) rotate(-172.591) scale(45.072 56.34)">
<stop stop-color="#C6E8E8"/>
<stop offset="1" stop-color="#EDFFFF" stop-opacity="0"/>
</radialGradient>
<linearGradient id="paint1_linear_594_23822" x1="191.891" y1="84.9977" x2="114.866" y2="69.4713" gradientUnits="userSpaceOnUse">
<stop stop-color="#F2EFA8"/>
<stop offset="0.52" stop-color="#EFF0A7"/>
<stop offset="1" stop-color="#F1F2AC"/>
</linearGradient>
<linearGradient id="paint2_linear_594_23822" x1="128.889" y1="133.05" x2="149.189" y2="-11.4357" gradientUnits="userSpaceOnUse">
<stop stop-color="#FEFFCC"/>
<stop offset="0.24" stop-color="#FCFDB8"/>
<stop offset="0.69" stop-color="#EEEA87"/>
<stop offset="1" stop-color="#E9EB90"/>
</linearGradient>
<linearGradient id="paint3_linear_594_23822" x1="38.3697" y1="91.1861" x2="156.459" y2="85.667" gradientUnits="userSpaceOnUse">
<stop stop-color="#FEF6AE"/>
<stop offset="0.24" stop-color="#FEF9CF"/>
<stop offset="0.69" stop-color="#F3F4C0"/>
<stop offset="1" stop-color="#EBED9C"/>
</linearGradient>
</defs>
</svg>
