<svg width="146" height="146" viewBox="0 0 146 146" fill="none" xmlns="http://www.w3.org/2000/svg">
<path d="M93.0017 117.742C68.6812 124.082 43.8385 109.508 37.4902 85.1944C31.1495 60.8739 45.7236 36.0311 70.0441 29.6904C94.3646 23.3497 119.207 37.9238 125.556 62.2377C131.896 86.5582 117.322 111.401 93.0083 117.749L93.0017 117.742Z" fill="url(#paint0_radial_594_23809)"/>
<path style="mix-blend-mode:multiply" d="M28.0384 46.5093C42.0568 24.8053 68.9028 17.2023 88.0147 29.5453C107.12 41.8808 111.245 69.4816 97.2266 91.1856C83.2081 112.89 56.3555 120.485 37.2503 108.15C18.145 95.814 14.0199 68.2133 28.0384 46.5093Z" fill="url(#paint1_radial_594_23809)"/>
<path style="mix-blend-mode:overlay" opacity="0.7" d="M71.4204 34.9652C70.0909 30.3948 61.8964 33.4333 53.116 41.7414C44.3355 50.0494 38.2942 60.5029 39.6162 65.08C40.9457 69.6504 49.1327 66.6185 57.9207 58.3038C66.7086 49.9892 72.7499 39.5357 71.427 34.9727L71.4204 34.9652Z" fill="url(#paint2_radial_594_23809)"/>
<path style="mix-blend-mode:overlay" opacity="0.5" d="M88.3347 79.3647C97.4913 69.5006 110.65 66.2916 117.718 72.1937C124.793 78.1034 123.102 90.8836 113.945 100.748C104.789 110.612 91.6305 113.821 84.562 107.919C77.487 102.009 79.1782 89.2287 88.3347 79.3647Z" fill="url(#paint3_radial_594_23809)"/>
<defs>
<radialGradient id="paint0_radial_594_23809" cx="0" cy="0" r="1" gradientUnits="userSpaceOnUse" gradientTransform="translate(107.792 80.2667) rotate(75.3895) scale(71.38 71.38)">
<stop stop-color="white"/>
<stop offset="0.27" stop-color="#F6F7FB"/>
<stop offset="0.71" stop-color="#DFE3F0"/>
<stop offset="0.84" stop-color="#D7DCED"/>
<stop offset="1" stop-color="#E8ECF5"/>
</radialGradient>
<radialGradient id="paint1_radial_594_23809" cx="0" cy="0" r="1" gradientUnits="userSpaceOnUse" gradientTransform="translate(64.8669 63.808) rotate(-147.141) scale(39.431 45.064)">
<stop stop-color="#C6CCE8"/>
<stop offset="0.1" stop-color="#C7CCE8" stop-opacity="0.97"/>
<stop offset="0.23" stop-color="#C9CFEA" stop-opacity="0.9"/>
<stop offset="0.38" stop-color="#CED3ED" stop-opacity="0.78"/>
<stop offset="0.55" stop-color="#D5D9F0" stop-opacity="0.61"/>
<stop offset="0.73" stop-color="#DDE1F5" stop-opacity="0.4"/>
<stop offset="0.91" stop-color="#E7EBFB" stop-opacity="0.14"/>
<stop offset="1" stop-color="#EDF0FF" stop-opacity="0"/>
</radialGradient>
<radialGradient id="paint2_radial_594_23809" cx="0" cy="0" r="1" gradientUnits="userSpaceOnUse" gradientTransform="translate(-1594.74 1591.48) rotate(-43.4405) scale(21.9458 7.68659)">
<stop stop-color="white"/>
<stop offset="0.1" stop-color="white" stop-opacity="0.85"/>
<stop offset="0.29" stop-color="white" stop-opacity="0.59"/>
<stop offset="0.47" stop-color="white" stop-opacity="0.38"/>
<stop offset="0.63" stop-color="white" stop-opacity="0.22"/>
<stop offset="0.78" stop-color="white" stop-opacity="0.1"/>
<stop offset="0.91" stop-color="white" stop-opacity="0.03"/>
<stop offset="1" stop-color="white" stop-opacity="0"/>
</radialGradient>
<radialGradient id="paint3_radial_594_23809" cx="0" cy="0" r="1" gradientUnits="userSpaceOnUse" gradientTransform="translate(-2.34307 5.55185) rotate(-140.141) scale(16.7167 24.3152)">
<stop stop-color="white"/>
<stop offset="0.1" stop-color="white" stop-opacity="0.85"/>
<stop offset="0.29" stop-color="white" stop-opacity="0.59"/>
<stop offset="0.47" stop-color="white" stop-opacity="0.38"/>
<stop offset="0.63" stop-color="white" stop-opacity="0.22"/>
<stop offset="0.78" stop-color="white" stop-opacity="0.1"/>
<stop offset="0.91" stop-color="white" stop-opacity="0.03"/>
<stop offset="1" stop-color="white" stop-opacity="0"/>
</radialGradient>
</defs>
</svg>
