<svg width="174" height="174" viewBox="0 0 174 174" fill="none" xmlns="http://www.w3.org/2000/svg">
<path style="mix-blend-mode:multiply" d="M72.3988 85.5053C76.5809 53.3285 94.9572 29.1902 113.438 31.5942C131.919 33.9981 143.514 62.0213 139.338 94.2055C135.156 126.382 116.78 150.521 98.2987 148.117C79.8177 145.713 68.2232 117.689 72.3988 85.5053Z" fill="url(#paint0_radial_594_23804)"/>
<path d="M34.4567 52.1156C15.587 68.7108 13.7432 97.4608 30.3384 116.33C46.9336 135.2 75.6836 137.044 94.5532 120.449C113.423 103.853 115.267 75.1035 98.6715 56.2339C82.0763 37.3642 53.3263 35.5204 34.4567 52.1156Z" fill="url(#paint1_radial_594_23804)"/>
<path style="mix-blend-mode:overlay" opacity="0.7" d="M94.5723 59.8399C98.0608 56.5988 91.662 50.6404 80.2905 46.5384C68.919 42.4363 56.8694 41.7273 53.3809 44.9685C49.8924 48.2096 56.2846 54.1605 67.6627 58.27C79.0408 62.3795 91.0838 63.0811 94.5789 59.8474L94.5723 59.8399Z" fill="url(#paint2_radial_594_23804)"/>
<path style="mix-blend-mode:overlay" opacity="0.5" d="M62.5209 94.9131C75.4455 98.6613 84.2297 108.967 82.131 117.938C80.0389 126.916 67.8568 131.144 54.9246 127.402C41.9925 123.661 33.2159 113.348 35.3071 104.384C37.4058 95.4139 49.5812 91.1782 62.5134 94.9197L62.5209 94.9131Z" fill="url(#paint3_radial_594_23804)"/>
<defs>
<radialGradient id="paint0_radial_594_23804" cx="0" cy="0" r="1" gradientUnits="userSpaceOnUse" gradientTransform="translate(105.647 88.5643) rotate(-172.601) scale(32.1081 56.33)">
<stop stop-color="#C6E6E8"/>
<stop offset="1" stop-color="#EDFCFF" stop-opacity="0"/>
</radialGradient>
<radialGradient id="paint1_radial_594_23804" cx="0" cy="0" r="1" gradientUnits="userSpaceOnUse" gradientTransform="translate(70.4982 112.706) rotate(138.669) scale(71.38)">
<stop stop-color="#FFF0F0"/>
<stop offset="0.27" stop-color="#FFE0E0"/>
<stop offset="0.71" stop-color="#FECCCC"/>
<stop offset="0.84" stop-color="#FDD2D2"/>
<stop offset="1" stop-color="#F2C0C0"/>
</radialGradient>
<radialGradient id="paint2_radial_594_23804" cx="0" cy="0" r="1" gradientUnits="userSpaceOnUse" gradientTransform="translate(-2004.13 -713.788) rotate(19.8495) scale(21.9458 7.6866)">
<stop stop-color="white"/>
<stop offset="0.1" stop-color="white" stop-opacity="0.85"/>
<stop offset="0.29" stop-color="white" stop-opacity="0.59"/>
<stop offset="0.47" stop-color="white" stop-opacity="0.38"/>
<stop offset="0.63" stop-color="white" stop-opacity="0.22"/>
<stop offset="0.78" stop-color="white" stop-opacity="0.1"/>
<stop offset="0.91" stop-color="white" stop-opacity="0.03"/>
<stop offset="1" stop-color="white" stop-opacity="0"/>
</radialGradient>
<radialGradient id="paint3_radial_594_23804" cx="0" cy="0" r="1" gradientUnits="userSpaceOnUse" gradientTransform="translate(90.494 -32.197) rotate(-76.8605) scale(16.7167 24.3152)">
<stop stop-color="white"/>
<stop offset="0.1" stop-color="white" stop-opacity="0.85"/>
<stop offset="0.29" stop-color="white" stop-opacity="0.59"/>
<stop offset="0.47" stop-color="white" stop-opacity="0.38"/>
<stop offset="0.63" stop-color="white" stop-opacity="0.22"/>
<stop offset="0.78" stop-color="white" stop-opacity="0.1"/>
<stop offset="0.91" stop-color="white" stop-opacity="0.03"/>
<stop offset="1" stop-color="white" stop-opacity="0"/>
</radialGradient>
</defs>
</svg>
