<svg width="323" height="323" viewBox="0 0 323 323" fill="none" xmlns="http://www.w3.org/2000/svg">
<path d="M86.0724 75.7925C38.7946 117.372 34.175 189.405 75.7542 236.682C117.333 283.96 189.366 288.58 236.644 247.001C283.922 205.421 288.541 133.389 246.962 86.1108C205.383 38.833 133.35 34.2133 86.0724 75.7925Z" fill="url(#paint0_radial_594_23800)"/>
<path style="mix-blend-mode:overlay" opacity="0.7" d="M236.683 95.1378C245.416 87.018 229.403 72.0962 200.899 61.8079C172.402 51.5131 142.216 49.7614 133.469 57.8803C124.729 65.9926 140.75 80.9077 169.254 91.196C197.759 101.484 227.944 103.25 236.69 95.1453L236.683 95.1378Z" fill="url(#paint1_radial_594_23800)"/>
<path style="mix-blend-mode:overlay" opacity="0.5" d="M156.38 183.007C188.762 192.389 210.771 218.217 205.518 240.696C200.271 263.182 169.753 273.788 137.364 264.412C104.974 255.037 82.9791 229.209 88.2253 206.737C93.4789 184.259 123.99 173.646 156.387 183.014L156.38 183.007Z" fill="url(#paint2_radial_594_23800)"/>
<defs>
<radialGradient id="paint0_radial_594_23800" cx="0" cy="0" r="1" gradientUnits="userSpaceOnUse" gradientTransform="translate(176.378 227.597) rotate(138.669) scale(178.84 178.84)">
<stop stop-color="white"/>
<stop offset="0.27" stop-color="#F6FBFB"/>
<stop offset="0.71" stop-color="#DFF0F0"/>
<stop offset="0.84" stop-color="#D7ECED"/>
<stop offset="1" stop-color="#E8F3F5"/>
</radialGradient>
<radialGradient id="paint1_radial_594_23800" cx="0" cy="0" r="1" gradientUnits="userSpaceOnUse" gradientTransform="translate(-1935.91 -705.491) rotate(19.8495) scale(54.9827 19.2579)">
<stop stop-color="white"/>
<stop offset="0.1" stop-color="white" stop-opacity="0.85"/>
<stop offset="0.29" stop-color="white" stop-opacity="0.59"/>
<stop offset="0.47" stop-color="white" stop-opacity="0.38"/>
<stop offset="0.63" stop-color="white" stop-opacity="0.22"/>
<stop offset="0.78" stop-color="white" stop-opacity="0.1"/>
<stop offset="0.91" stop-color="white" stop-opacity="0.03"/>
<stop offset="1" stop-color="white" stop-opacity="0"/>
</radialGradient>
<radialGradient id="paint2_radial_594_23800" cx="0" cy="0" r="1" gradientUnits="userSpaceOnUse" gradientTransform="translate(179.953 74.4402) rotate(-76.8605) scale(41.899 60.944)">
<stop stop-color="white"/>
<stop offset="0.1" stop-color="white" stop-opacity="0.85"/>
<stop offset="0.29" stop-color="white" stop-opacity="0.59"/>
<stop offset="0.47" stop-color="white" stop-opacity="0.38"/>
<stop offset="0.63" stop-color="white" stop-opacity="0.22"/>
<stop offset="0.78" stop-color="white" stop-opacity="0.1"/>
<stop offset="0.91" stop-color="white" stop-opacity="0.03"/>
<stop offset="1" stop-color="white" stop-opacity="0"/>
</radialGradient>
</defs>
</svg>
