<svg width="735" height="223" viewBox="0 0 735 223" fill="none" xmlns="http://www.w3.org/2000/svg">
<path d="M71.8781 29C32.2891 29 -3.05123e-05 61.253 -3.05058e-05 100.798C-3.05037e-05 113.278 3.20571 125.026 8.84473 135.269C12.5719 130.89 16.5115 126.666 20.6635 122.615C24.5451 118.814 28.5813 115.188 32.7526 111.754C31.7677 108.263 31.2463 104.598 31.2463 100.798C31.2463 78.4211 49.4765 60.2113 71.8781 60.2113C84.141 60.2113 95.168 65.6704 102.622 74.293C113.012 71.033 123.827 68.4481 135.027 66.5577C122.822 44.2006 99.069 29 71.8781 29V29ZM138.484 73.8108C127.65 75.5276 117.241 77.9003 107.276 80.8902C110.598 86.7737 112.51 93.5638 112.51 100.798C112.51 123.174 94.2797 141.384 71.8781 141.384C56.1005 141.384 42.3891 132.356 35.6687 119.181C27.4998 126.125 19.949 133.764 13.0933 142.04C26.1094 160.5 47.6226 172.614 71.8781 172.614C88.8145 172.614 103.916 164.03 112.51 151.53L112.51 223L143.776 223L143.776 100.798C143.776 91.249 141.902 82.1441 138.484 73.8108V73.8108Z" fill="white"/>
<path d="M271.185 28L271.185 78.2421C282.975 83.0564 293.12 88.5447 302.528 94.0715L302.528 28L271.185 28ZM271.185 86.6382L271.185 99.425C271.185 122.803 256.569 136.842 234.634 136.842C212.7 136.842 198.083 122.803 198.083 99.425L198.083 70.6355C192.76 70.3466 187.203 70.1926 181.395 70.1926C176.439 70.1926 171.561 70.3081 166.74 70.5777L166.74 99.425C166.74 140.462 195.47 168 234.634 168C273.799 168 300.844 142.041 302.451 102.988C293.023 97.3645 282.936 91.6644 271.185 86.6382V86.6382ZM166.74 28L166.74 62.8556C171.561 62.6052 176.459 62.4897 181.395 62.4897C187.203 62.4897 192.76 62.6245 198.083 62.9133L198.083 28L166.74 28Z" fill="white"/>
<path d="M395.873 25C356.542 25 324.494 56.921 324.494 95.8458C324.494 100.079 324.861 104.216 325.576 108.237C338.924 115.972 352.292 122.476 369.118 125.862C360.908 118.493 355.75 107.795 355.75 95.8458C355.75 74.0456 373.735 56.1514 395.873 56.1514C418.011 56.1514 435.996 74.0456 435.996 95.8458C435.996 107.371 431.205 117.723 423.517 125.035C442.409 120.032 455.005 109.93 467.271 98.8859L467.271 95.8458C467.271 56.921 435.223 25 395.873 25V25ZM395.873 136.079C366.723 136.079 346.555 128.479 328.203 118.55C337.688 146.854 364.462 167.211 395.873 167.211C412.815 167.211 427.67 158.899 435.996 146.719L435.996 168L467.271 168L467.271 109.18C450.542 123.515 430.838 136.079 395.873 136.079Z" fill="white"/>
<path d="M494.848 84.4152C494.442 87.6894 494.229 91.0791 494.229 94.5652L494.229 166L525.557 166L525.557 94.5652C525.557 81.8536 529.797 72.0118 537.116 65.6368C518.954 68.9495 506.04 75.9216 494.848 84.4152V84.4152ZM562.132 26C530.146 26 505.13 44.3547 497.017 73.4371C512.545 63.2871 532.179 55.8143 562.132 55.8143C592.086 55.8143 610.674 64.5583 627.809 75.729C620.355 45.3177 594.719 26 562.132 26ZM629.591 86.2064C616.405 77.2698 604.652 69.7777 587.729 66.0605C594.68 72.397 598.688 82.0655 598.688 94.5652L598.688 166L630.017 166L630.017 94.5652C630.017 91.7147 629.881 88.922 629.591 86.2064Z" fill="white"/>
<path d="M697.659 120.684C684.206 116.59 673.17 111.897 663.67 107.011L663.67 111.743C663.67 160.7 706.641 168 734.853 168L734.853 136.752C720.383 136.752 704.185 135.188 697.659 120.684V120.684ZM663.67 98.243C672.518 103.013 682.728 107.629 695.184 111.743C694.877 109.599 694.723 107.262 694.723 104.713L694.723 59.9076L728.117 59.9076L728.117 28.6598L694.723 28.6598L694.723 -7.20597e-09L663.67 -2.09001e-09L663.67 28.6598L650.984 28.6598L650.984 59.9076L663.67 59.9076L663.67 98.243Z" fill="white"/>
</svg>
