<svg width="1240" height="367" viewBox="0 0 1240 367" fill="none" xmlns="http://www.w3.org/2000/svg">
<path d="M560.537 173.941C560.537 112.15 603.486 70.7008 662.033 70.7008C720.579 70.7008 763.528 112.15 763.528 173.941V281.475H716.675V173.941C716.675 137.975 694.818 117.634 662.013 117.634C629.207 117.634 607.35 138.358 607.35 173.941V281.475H560.497V173.941H560.537Z" fill="white"/>
<path d="M793.597 26.1268C793.597 12.055 805.31 0.704895 818.976 0.704895C832.641 0.704895 844.737 12.0349 844.737 26.1268C844.737 39.4123 833.024 51.9317 818.976 51.9317C804.928 51.9317 793.597 39.4123 793.597 26.1268ZM796.716 73.8256H840.833V281.475H796.716V73.8256V73.8256Z" fill="white"/>
<path d="M895.093 198.576V120.758H875.973V73.8256H895.093V30.8241H941.946V73.8458H992.302V120.779H941.946V188.033C941.946 232.224 974.349 236.135 1002.45 236.135V283.067C959.899 283.067 895.093 272.121 895.093 198.597V198.576Z" fill="white"/>
<path d="M1038.35 320.182C1083.25 329.577 1109.4 285.386 1096.92 260.347L1020.02 73.8256H1069.99L1130.1 218.132L1190.22 73.8256H1239.79L1154.3 281.475C1130.49 332.702 1102.37 374.937 1038.35 365.159V320.182V320.182Z" fill="white"/>
<path d="M215.757 153.841L162.041 164.062C162.504 166.844 162.725 169.707 162.725 172.61C162.725 186.339 157.714 198.758 149.422 208.213L189.292 245.59C206.741 226.337 217.388 200.754 217.388 172.61C217.388 166.219 216.824 159.95 215.757 153.841V153.841ZM142.036 215.188C132.878 222.345 121.366 226.579 108.868 226.579C95.2625 226.579 82.8246 221.579 73.3251 213.233L36.0114 253.17C55.3123 270.689 80.8925 281.313 108.868 281.313C134.81 281.313 158.68 272.161 177.397 256.879L142.036 215.188ZM54.9903 172.61C54.9903 166.34 56.0771 160.312 58.0696 154.708L6.86885 135.516C2.64238 147.108 0.327881 159.587 0.327881 172.61C0.327881 198.657 9.46511 222.527 24.6402 241.195L66.281 205.753C59.1966 196.641 54.9903 185.17 54.9903 172.61V172.61ZM126.679 65.3785L118.206 119.468C137.568 122.875 153.427 136.725 159.746 154.97L211.953 138.661C199.455 100.82 166.69 72.0515 126.679 65.3785V65.3785ZM108.868 63.9068C67.6898 63.9068 31.7044 87.1312 13.3092 121.162L61.974 146.1C71.232 129.73 88.8021 118.642 108.868 118.642C109.029 118.642 109.21 118.641 109.371 118.662L111.605 63.9471C110.699 63.9471 109.773 63.9068 108.868 63.9068V63.9068Z" fill="url(#paint0_radial_1_3)"/>
<path d="M526.725 73.6039V200.794C526.725 245.912 490.096 282.604 445.054 282.604C422.311 282.604 401.702 273.25 386.89 258.15C385.783 259.279 384.615 260.347 383.428 261.395C368.595 274.358 348.932 281.495 328.061 281.495C307.19 281.475 287.527 274.338 272.694 261.395C255.849 246.658 246.51 225.168 246.389 200.895H246.43C246.43 200.391 246.389 199.887 246.389 199.363V73.6039H292.679V200.734C292.82 226.115 311.819 235.107 328.061 235.127C336.192 235.127 345.007 232.869 351.81 227.446C358.29 222.265 362.94 214.18 363.402 202.427C363.402 201.883 363.402 201.338 363.402 200.794V73.6039H409.692V200.915C409.692 201.399 409.692 201.883 409.733 202.367V202.609C410.679 221.317 426.176 236.236 445.074 236.236C463.972 236.236 480.456 220.349 480.456 200.794V73.6039H526.746H526.725Z" fill="white"/>
<defs>
<radialGradient id="paint0_radial_1_3" cx="0" cy="0" r="1" gradientUnits="userSpaceOnUse" gradientTransform="translate(108.868 172.61) scale(108.52 108.703)">
<stop stop-color="#4D89FE"/>
<stop offset="1" stop-color="#355FC9"/>
</radialGradient>
</defs>
</svg>
